<svg xmlns="http://www.w3.org/2000/svg" version="1.1"
     width="4340.1630000000005"
     height="639.7525781249999"
     viewBox="-170.0 -170.77639062500052 4340.1630000000005 639.7525781249999"
     transform="matrix(1 0 0 -1 0 0)">
    <line x1="0.0" y1="0.0" x2="200.0" y2="150.0" stroke="#D5DBF8" stroke-width="4.47213595499958"/>
	<line x1="200.0" y1="150.0" x2="400.0" y2="0.0" stroke="#D5DBF8" stroke-width="4.47213595499958"/>
	<line x1="400.0" y1="0.0" x2="600.0" y2="150.0" stroke="#D5DBF8" stroke-width="4.47213595499958"/>
	<line x1="600.0" y1="150.0" x2="800.0" y2="0.0" stroke="#D5DBF8" stroke-width="4.47213595499958"/>
	<line x1="800.0" y1="0.0" x2="1000.0" y2="150.0" stroke="#D5DBF8" stroke-width="4.47213595499958"/>
	<line x1="1000.0" y1="150.0" x2="1200.0" y2="0.0" stroke="#D5DBF8" stroke-width="4.47213595499958"/>
	<line x1="1200.0" y1="0.0" x2="1400.0" y2="150.0" stroke="#D5DBF8" stroke-width="4.47213595499958"/>
	<line x1="1400.0" y1="150.0" x2="1600.0" y2="0.0" stroke="#D5DBF8" stroke-width="4.47213595499958"/>
	<line x1="1600.0" y1="0.0" x2="1800.0" y2="150.0" stroke="#D5DBF8" stroke-width="4.47213595499958"/>
	<line x1="1800.0" y1="150.0" x2="2000.0" y2="0.0" stroke="#D5DBF8" stroke-width="4.47213595499958"/>
	<line x1="2000.0" y1="0.0" x2="2200.0" y2="150.0" stroke="#D5DBF8" stroke-width="4.47213595499958"/>
	<line x1="2200.0" y1="150.0" x2="2400.0" y2="0.0" stroke="#D5DBF8" stroke-width="4.47213595499958"/>
	<line x1="2400.0" y1="0.0" x2="2600.0" y2="150.0" stroke="#D5DBF8" stroke-width="4.47213595499958"/>
	<line x1="2600.0" y1="150.0" x2="2800.0" y2="0.0" stroke="#D5DBF8" stroke-width="4.47213595499958"/>
	<line x1="2800.0" y1="0.0" x2="3000.0" y2="150.0" stroke="#D5DBF8" stroke-width="4.47213595499958"/>
	<line x1="3000.0" y1="150.0" x2="3200.0" y2="0.0" stroke="#D5DBF8" stroke-width="4.47213595499958"/>
	<line x1="3200.0" y1="0.0" x2="3400.0" y2="150.0" stroke="#D5DBF8" stroke-width="4.47213595499958"/>
	<line x1="3400.0" y1="150.0" x2="3600.0" y2="0.0" stroke="#D5DBF8" stroke-width="4.47213595499958"/>
	<line x1="3600.0" y1="0.0" x2="3800.0" y2="150.0" stroke="#D5DBF8" stroke-width="4.47213595499958"/>
	<line x1="3800.0" y1="150.0" x2="4000.0" y2="0.0" stroke="#D5DBF8" stroke-width="4.47213595499958"/>
	<line x1="400.0" y1="300.0" x2="200.0" y2="150.0" stroke="#D5DBF8" stroke-width="4.47213595499958"/>
	<line x1="400.0" y1="300.0" x2="600.0" y2="150.0" stroke="#D5DBF8" stroke-width="4.47213595499958"/>
	<line x1="800.0" y1="300.0" x2="1000.0" y2="150.0" stroke="#D5DBF8" stroke-width="4.47213595499958"/>
	<line x1="1200.0" y1="300.0" x2="1400.0" y2="150.0" stroke="#D5DBF8" stroke-width="4.47213595499958"/>
	<line x1="1600.0" y1="300.0" x2="1800.0" y2="150.0" stroke="#D5DBF8" stroke-width="4.47213595499958"/>
	<line x1="2400.0" y1="300.0" x2="2200.0" y2="150.0" stroke="#D5DBF8" stroke-width="4.47213595499958"/>
	<line x1="2800.0" y1="300.0" x2="2600.0" y2="150.0" stroke="#D5DBF8" stroke-width="4.47213595499958"/>
	<line x1="3200.0" y1="300.0" x2="3000.0" y2="150.0" stroke="#D5DBF8" stroke-width="4.47213595499958"/>
	<line x1="3600.0" y1="300.0" x2="3400.0" y2="150.0" stroke="#D5DBF8" stroke-width="4.47213595499958"/>
	<line x1="3600.0" y1="300.0" x2="3800.0" y2="150.0" stroke="#D5DBF8" stroke-width="4.47213595499958"/>
	<line x1="200.0" y1="0.0" x2="200.0" y2="150.0" stroke="#D5DBF8" stroke-width="4.47213595499958"/>
	<line x1="400.0" y1="0.0" x2="400.0" y2="300.0" stroke="#D5DBF8" stroke-width="4.47213595499958"/>
	<line x1="600.0" y1="0.0" x2="600.0" y2="150.0" stroke="#D5DBF8" stroke-width="4.47213595499958"/>
	<line x1="800.0" y1="0.0" x2="800.0" y2="300.0" stroke="#D5DBF8" stroke-width="4.47213595499958"/>
	<line x1="1000.0" y1="0.0" x2="1000.0" y2="150.0" stroke="#D5DBF8" stroke-width="4.47213595499958"/>
	<line x1="1200.0" y1="0.0" x2="1200.0" y2="300.0" stroke="#D5DBF8" stroke-width="4.47213595499958"/>
	<line x1="1400.0" y1="0.0" x2="1400.0" y2="150.0" stroke="#D5DBF8" stroke-width="4.47213595499958"/>
	<line x1="1600.0" y1="0.0" x2="1600.0" y2="300.0" stroke="#D5DBF8" stroke-width="4.47213595499958"/>
	<line x1="1800.0" y1="0.0" x2="1800.0" y2="150.0" stroke="#D5DBF8" stroke-width="4.47213595499958"/>
	<line x1="2000.0" y1="0.0" x2="2000.0" y2="300.0" stroke="#D5DBF8" stroke-width="4.47213595499958"/>
	<line x1="2200.0" y1="0.0" x2="2200.0" y2="150.0" stroke="#D5DBF8" stroke-width="4.47213595499958"/>
	<line x1="2400.0" y1="0.0" x2="2400.0" y2="300.0" stroke="#D5DBF8" stroke-width="4.47213595499958"/>
	<line x1="2600.0" y1="0.0" x2="2600.0" y2="150.0" stroke="#D5DBF8" stroke-width="4.47213595499958"/>
	<line x1="2800.0" y1="0.0" x2="2800.0" y2="300.0" stroke="#D5DBF8" stroke-width="4.47213595499958"/>
	<line x1="3000.0" y1="0.0" x2="3000.0" y2="150.0" stroke="#D5DBF8" stroke-width="4.47213595499958"/>
	<line x1="3200.0" y1="0.0" x2="3200.0" y2="300.0" stroke="#D5DBF8" stroke-width="4.47213595499958"/>
	<line x1="3400.0" y1="0.0" x2="3400.0" y2="150.0" stroke="#D5DBF8" stroke-width="4.47213595499958"/>
	<line x1="3600.0" y1="0.0" x2="3600.0" y2="300.0" stroke="#D5DBF8" stroke-width="4.47213595499958"/>
	<line x1="3800.0" y1="0.0" x2="3800.0" y2="150.0" stroke="#D5DBF8" stroke-width="4.47213595499958"/>
	<line x1="0.0" y1="0.0" x2="200.0" y2="0.0" stroke="#D5DBF8" stroke-width="4.47213595499958"/>
	<line x1="200.0" y1="0.0" x2="400.0" y2="0.0" stroke="#D5DBF8" stroke-width="4.47213595499958"/>
	<line x1="400.0" y1="0.0" x2="600.0" y2="0.0" stroke="#D5DBF8" stroke-width="4.47213595499958"/>
	<line x1="600.0" y1="0.0" x2="800.0" y2="0.0" stroke="#D5DBF8" stroke-width="4.47213595499958"/>
	<line x1="800.0" y1="0.0" x2="1000.0" y2="0.0" stroke="#D5DBF8" stroke-width="4.47213595499958"/>
	<line x1="1000.0" y1="0.0" x2="1200.0" y2="0.0" stroke="#D5DBF8" stroke-width="4.47213595499958"/>
	<line x1="1200.0" y1="0.0" x2="1400.0" y2="0.0" stroke="#D5DBF8" stroke-width="4.47213595499958"/>
	<line x1="1400.0" y1="0.0" x2="1600.0" y2="0.0" stroke="#D5DBF8" stroke-width="4.47213595499958"/>
	<line x1="1600.0" y1="0.0" x2="1800.0" y2="0.0" stroke="#D5DBF8" stroke-width="4.47213595499958"/>
	<line x1="1800.0" y1="0.0" x2="2000.0" y2="0.0" stroke="#D5DBF8" stroke-width="4.47213595499958"/>
	<line x1="2000.0" y1="0.0" x2="2200.0" y2="0.0" stroke="#D5DBF8" stroke-width="4.47213595499958"/>
	<line x1="2200.0" y1="0.0" x2="2400.0" y2="0.0" stroke="#D5DBF8" stroke-width="4.47213595499958"/>
	<line x1="2400.0" y1="0.0" x2="2600.0" y2="0.0" stroke="#D5DBF8" stroke-width="4.47213595499958"/>
	<line x1="2600.0" y1="0.0" x2="2800.0" y2="0.0" stroke="#D5DBF8" stroke-width="4.47213595499958"/>
	<line x1="2800.0" y1="0.0" x2="3000.0" y2="0.0" stroke="#D5DBF8" stroke-width="4.47213595499958"/>
	<line x1="3000.0" y1="0.0" x2="3200.0" y2="0.0" stroke="#D5DBF8" stroke-width="4.47213595499958"/>
	<line x1="3200.0" y1="0.0" x2="3400.0" y2="0.0" stroke="#D5DBF8" stroke-width="4.47213595499958"/>
	<line x1="3400.0" y1="0.0" x2="3600.0" y2="0.0" stroke="#D5DBF8" stroke-width="4.47213595499958"/>
	<line x1="3600.0" y1="0.0" x2="3800.0" y2="0.0" stroke="#D5DBF8" stroke-width="4.47213595499958"/>
	<line x1="3800.0" y1="0.0" x2="4000.0" y2="0.0" stroke="#D5DBF8" stroke-width="4.47213595499958"/>
	<line x1="400.0" y1="300.0" x2="800.0" y2="300.0" stroke="#D5DBF8" stroke-width="4.47213595499958"/>
	<line x1="800.0" y1="300.0" x2="1200.0" y2="300.0" stroke="#D5DBF8" stroke-width="4.47213595499958"/>
	<line x1="1200.0" y1="300.0" x2="1600.0" y2="300.0" stroke="#D5DBF8" stroke-width="4.47213595499958"/>
	<line x1="1600.0" y1="300.0" x2="2000.0" y2="300.0" stroke="#D5DBF8" stroke-width="4.47213595499958"/>
	<line x1="2000.0" y1="300.0" x2="2400.0" y2="300.0" stroke="#D5DBF8" stroke-width="4.47213595499958"/>
	<line x1="2400.0" y1="300.0" x2="2800.0" y2="300.0" stroke="#D5DBF8" stroke-width="4.47213595499958"/>
	<line x1="2800.0" y1="300.0" x2="3200.0" y2="300.0" stroke="#D5DBF8" stroke-width="4.47213595499958"/>
	<line x1="3200.0" y1="300.0" x2="3600.0" y2="300.0" stroke="#D5DBF8" stroke-width="4.47213595499958"/>
	<line x1="0.0" y1="0.0" x2="212.46067708334138" y2="131.73645833332165" stroke="#BB2727" stroke-width="4.47213595499958"/>
	<line x1="212.46067708334138" y1="131.73645833332165" x2="401.2666666666674" y2="-33.10208333335474" stroke="#BB2727" stroke-width="4.47213595499958"/>
	<line x1="401.2666666666674" y1="-33.10208333335474" x2="612.1809895833413" y2="102.25868055552446" stroke="#BB2727" stroke-width="4.47213595499958"/>
	<line x1="612.1809895833413" y1="102.25868055552446" x2="802.5333333333348" y2="-61.7333333333739" stroke="#005005" stroke-width="4.47213595499958"/>
	<line x1="802.5333333333348" y1="-61.7333333333739" x2="1011.8143229166744" y2="75.80520833328436" stroke="#BB2727" stroke-width="4.47213595499958"/>
	<line x1="1011.8143229166744" y1="75.80520833328436" x2="1204.7333333333363" y2="-84.41736111116708" stroke="#005005" stroke-width="4.47213595499958"/>
	<line x1="1204.7333333333363" y1="-84.41736111116708" x2="1411.3278645833407" y2="56.70312499993803" stroke="#BB2727" stroke-width="4.47213595499958"/>
	<line x1="1411.3278645833407" y1="56.70312499993803" x2="1607.600000000005" y2="-98.70138888895426" stroke="#005005" stroke-width="4.47213595499958"/>
	<line x1="1607.600000000005" y1="-98.70138888895426" x2="1810.9747395833404" y2="46.712152777709434" stroke="#BB2727" stroke-width="4.47213595499958"/>
	<line x1="1810.9747395833404" y1="46.712152777709434" x2="2010.8666666666738" y2="-103.51875000006818" stroke="#005005" stroke-width="4.47213595499958"/>
	<line x1="2010.8666666666738" y1="-103.51875000006818" x2="2210.758593750007" y2="46.712152777709875" stroke="#005005" stroke-width="4.47213595499958"/>
	<line x1="2210.758593750007" y1="46.712152777709875" x2="2414.1333333333428" y2="-98.70138888895352" stroke="#BB2727" stroke-width="4.47213595499958"/>
	<line x1="2414.1333333333428" y1="-98.70138888895352" x2="2610.4054687500065" y2="56.70312499993938" stroke="#005005" stroke-width="4.47213595499958"/>
	<line x1="2610.4054687500065" y1="56.70312499993938" x2="2817.0000000000114" y2="-84.41736111116568" stroke="#BB2727" stroke-width="4.47213595499958"/>
	<line x1="2817.0000000000114" y1="-84.41736111116568" x2="3009.9190104166732" y2="75.80520833328579" stroke="#005005" stroke-width="4.47213595499958"/>
	<line x1="3009.9190104166732" y1="75.80520833328579" x2="3219.2000000000126" y2="-61.733333333372585" stroke="#BB2727" stroke-width="4.47213595499958"/>
	<line x1="3219.2000000000126" y1="-61.733333333372585" x2="3409.552343750006" y2="102.2586805555256" stroke="#005005" stroke-width="4.47213595499958"/>
	<line x1="3409.552343750006" y1="102.2586805555256" x2="3620.46666666668" y2="-33.10208333335389" stroke="#BB2727" stroke-width="4.47213595499958"/>
	<line x1="3620.46666666668" y1="-33.10208333335389" x2="3809.272656250006" y2="131.7364583333222" stroke="#BB2727" stroke-width="4.47213595499958"/>
	<line x1="3809.272656250006" y1="131.7364583333222" x2="4021.733333333347" y2="0.0" stroke="#BB2727" stroke-width="4.47213595499958"/>
	<line x1="422.333333333348" y1="267.0104166666453" x2="212.46067708334138" y2="131.73645833332165" stroke="#BB2727" stroke-width="4.47213595499958"/>
	<line x1="422.333333333348" y1="267.0104166666453" x2="612.1809895833413" y2="102.25868055552446" stroke="#005005" stroke-width="4.47213595499958"/>
	<line x1="820.2000000000133" y1="237.85416666662582" x2="1011.8143229166744" y2="75.80520833328436" stroke="#005005" stroke-width="4.47213595499958"/>
	<line x1="1217.4000000000115" y1="215.32013888883276" x2="1411.3278645833407" y2="56.70312499993803" stroke="#005005" stroke-width="4.47213595499958"/>
	<line x1="1614.2000000000091" y1="201.1861111110457" x2="1810.9747395833404" y2="46.712152777709434" stroke="#005005" stroke-width="4.47213595499958"/>
	<line x1="2407.5333333333383" y1="201.1861111110464" x2="2210.758593750007" y2="46.712152777709875" stroke="#005005" stroke-width="4.47213595499958"/>
	<line x1="2804.333333333336" y1="215.3201388888341" x2="2610.4054687500065" y2="56.70312499993938" stroke="#005005" stroke-width="4.47213595499958"/>
	<line x1="3201.533333333334" y1="237.85416666662712" x2="3009.9190104166732" y2="75.80520833328579" stroke="#005005" stroke-width="4.47213595499958"/>
	<line x1="3599.3999999999996" y1="267.01041666664617" x2="3409.552343750006" y2="102.2586805555256" stroke="#005005" stroke-width="4.47213595499958"/>
	<line x1="3599.3999999999996" y1="267.01041666664617" x2="3809.272656250006" y2="131.7364583333222" stroke="#BB2727" stroke-width="4.47213595499958"/>
	<line x1="200.6333333333337" y1="-18.282291666678343" x2="212.46067708334138" y2="131.73645833332165" stroke="#005005" stroke-width="4.47213595499958"/>
	<line x1="401.2666666666674" y1="-33.10208333335474" x2="422.333333333348" y2="267.0104166666453" stroke="#005005" stroke-width="4.47213595499958"/>
	<line x1="601.9000000000011" y1="-47.76006944447554" x2="612.1809895833413" y2="102.25868055552446" stroke="#005005" stroke-width="4.47213595499958"/>
	<line x1="802.5333333333348" y1="-61.7333333333739" x2="820.2000000000133" y2="237.85416666662582" stroke="#BB2727" stroke-width="4.47213595499958"/>
	<line x1="1003.6333333333356" y1="-74.21354166671564" x2="1011.8143229166744" y2="75.80520833328436" stroke="#005005" stroke-width="4.47213595499958"/>
	<line x1="1204.7333333333363" y1="-84.41736111116708" x2="1217.4000000000115" y2="215.32013888883276" stroke="#BB2727" stroke-width="4.47213595499958"/>
	<line x1="1406.1666666666706" y1="-93.315625000062" x2="1411.3278645833407" y2="56.70312499993803" stroke="#005005" stroke-width="4.47213595499958"/>
	<line x1="1607.600000000005" y1="-98.70138888895426" x2="1614.2000000000091" y2="201.1861111110457" stroke="#BB2727" stroke-width="4.47213595499958"/>
	<line x1="1809.2333333333395" y1="-103.30659722229056" x2="1810.9747395833404" y2="46.712152777709434" stroke="#005005" stroke-width="4.47213595499958"/>
	<line x1="2010.8666666666738" y1="-103.51875000006818" x2="2010.8666666666736" y2="196.4437499999318" stroke="#BB2727" stroke-width="4.47213595499958"/>
	<line x1="2212.500000000008" y1="-103.30659722229012" x2="2210.758593750007" y2="46.712152777709875" stroke="#005005" stroke-width="4.47213595499958"/>
	<line x1="2414.1333333333428" y1="-98.70138888895352" x2="2407.5333333333383" y2="201.1861111110464" stroke="#BB2727" stroke-width="4.47213595499958"/>
	<line x1="2615.566666666677" y1="-93.31562500006063" x2="2610.4054687500065" y2="56.70312499993938" stroke="#005005" stroke-width="4.47213595499958"/>
	<line x1="2817.0000000000114" y1="-84.41736111116568" x2="2804.333333333336" y2="215.3201388888341" stroke="#BB2727" stroke-width="4.47213595499958"/>
	<line x1="3018.1000000000117" y1="-74.21354166671422" x2="3009.9190104166732" y2="75.80520833328579" stroke="#005005" stroke-width="4.47213595499958"/>
	<line x1="3219.2000000000126" y1="-61.733333333372585" x2="3201.533333333334" y2="237.85416666662712" stroke="#BB2727" stroke-width="4.47213595499958"/>
	<line x1="3419.833333333346" y1="-47.760069444474404" x2="3409.552343750006" y2="102.2586805555256" stroke="#005005" stroke-width="4.47213595499958"/>
	<line x1="3620.46666666668" y1="-33.10208333335389" x2="3599.3999999999996" y2="267.01041666664617" stroke="#005005" stroke-width="4.47213595499958"/>
	<line x1="3821.1000000000136" y1="-18.282291666677803" x2="3809.272656250006" y2="131.7364583333222" stroke="#005005" stroke-width="4.47213595499958"/>
	<line x1="0.0" y1="0.0" x2="200.6333333333337" y2="-18.282291666678343" stroke="#005005" stroke-width="4.47213595499958"/>
	<line x1="200.6333333333337" y1="-18.282291666678343" x2="401.2666666666674" y2="-33.10208333335474" stroke="#005005" stroke-width="4.47213595499958"/>
	<line x1="401.2666666666674" y1="-33.10208333335474" x2="601.9000000000011" y2="-47.76006944447554" stroke="#005005" stroke-width="4.47213595499958"/>
	<line x1="601.9000000000011" y1="-47.76006944447554" x2="802.5333333333348" y2="-61.7333333333739" stroke="#005005" stroke-width="4.47213595499958"/>
	<line x1="802.5333333333348" y1="-61.7333333333739" x2="1003.6333333333356" y2="-74.21354166671564" stroke="#005005" stroke-width="4.47213595499958"/>
	<line x1="1003.6333333333356" y1="-74.21354166671564" x2="1204.7333333333363" y2="-84.41736111116708" stroke="#005005" stroke-width="4.47213595499958"/>
	<line x1="1204.7333333333363" y1="-84.41736111116708" x2="1406.1666666666706" y2="-93.315625000062" stroke="#005005" stroke-width="4.47213595499958"/>
	<line x1="1406.1666666666706" y1="-93.315625000062" x2="1607.600000000005" y2="-98.70138888895426" stroke="#005005" stroke-width="4.47213595499958"/>
	<line x1="1607.600000000005" y1="-98.70138888895426" x2="1809.2333333333395" y2="-103.30659722229056" stroke="#005005" stroke-width="4.47213595499958"/>
	<line x1="1809.2333333333395" y1="-103.30659722229056" x2="2010.8666666666738" y2="-103.51875000006818" stroke="#005005" stroke-width="4.47213595499958"/>
	<line x1="2010.8666666666738" y1="-103.51875000006818" x2="2212.500000000008" y2="-103.30659722229012" stroke="#005005" stroke-width="4.47213595499958"/>
	<line x1="2212.500000000008" y1="-103.30659722229012" x2="2414.1333333333428" y2="-98.70138888895352" stroke="#005005" stroke-width="4.47213595499958"/>
	<line x1="2414.1333333333428" y1="-98.70138888895352" x2="2615.566666666677" y2="-93.31562500006063" stroke="#005005" stroke-width="4.47213595499958"/>
	<line x1="2615.566666666677" y1="-93.31562500006063" x2="2817.0000000000114" y2="-84.41736111116568" stroke="#005005" stroke-width="4.47213595499958"/>
	<line x1="2817.0000000000114" y1="-84.41736111116568" x2="3018.1000000000117" y2="-74.21354166671422" stroke="#005005" stroke-width="4.47213595499958"/>
	<line x1="3018.1000000000117" y1="-74.21354166671422" x2="3219.2000000000126" y2="-61.733333333372585" stroke="#005005" stroke-width="4.47213595499958"/>
	<line x1="3219.2000000000126" y1="-61.733333333372585" x2="3419.833333333346" y2="-47.760069444474404" stroke="#005005" stroke-width="4.47213595499958"/>
	<line x1="3419.833333333346" y1="-47.760069444474404" x2="3620.46666666668" y2="-33.10208333335389" stroke="#005005" stroke-width="4.47213595499958"/>
	<line x1="3620.46666666668" y1="-33.10208333335389" x2="3821.1000000000136" y2="-18.282291666677803" stroke="#005005" stroke-width="4.47213595499958"/>
	<line x1="3821.1000000000136" y1="-18.282291666677803" x2="4021.733333333347" y2="0.0" stroke="#005005" stroke-width="4.47213595499958"/>
	<line x1="422.333333333348" y1="267.0104166666453" x2="820.2000000000133" y2="237.85416666662582" stroke="#BB2727" stroke-width="4.47213595499958"/>
	<line x1="820.2000000000133" y1="237.85416666662582" x2="1217.4000000000115" y2="215.32013888883276" stroke="#BB2727" stroke-width="4.47213595499958"/>
	<line x1="1217.4000000000115" y1="215.32013888883276" x2="1614.2000000000091" y2="201.1861111110457" stroke="#BB2727" stroke-width="4.47213595499958"/>
	<line x1="1614.2000000000091" y1="201.1861111110457" x2="2010.8666666666736" y2="196.4437499999318" stroke="#BB2727" stroke-width="4.47213595499958"/>
	<line x1="2010.8666666666736" y1="196.4437499999318" x2="2407.5333333333383" y2="201.1861111110464" stroke="#BB2727" stroke-width="4.47213595499958"/>
	<line x1="2407.5333333333383" y1="201.1861111110464" x2="2804.333333333336" y2="215.3201388888341" stroke="#BB2727" stroke-width="4.47213595499958"/>
	<line x1="2804.333333333336" y1="215.3201388888341" x2="3201.533333333334" y2="237.85416666662712" stroke="#BB2727" stroke-width="4.47213595499958"/>
	<line x1="3201.533333333334" y1="237.85416666662712" x2="3599.3999999999996" y2="267.01041666664617" stroke="#BB2727" stroke-width="4.47213595499958"/>
	<text x="100.96062867954355" y="74.36706190822011" dx="0" dy="0" fill="#BB2727" transform="matrix(0.8498832741559277 0.5269709862127139 0.5269709862127139 -0.8498832741559277 -24.033404938984475 84.36706190822011)" font-family="sans-serif" font-size="14px">
    σ = -783.8608
</text>
	<text x="313.4404275893137" y="56.850200461229434" dx="0" dy="0" fill="#BB2727" transform="matrix(0.7533012961245987 -0.6576755714309295 -0.6576755714309295 -0.7533012961245987 114.7143353027372 305.81764247797355)" font-family="sans-serif" font-size="14px">
    σ = -36.1389
</text>
	<text x="501.3226633050738" y="42.994201330813965" dx="0" dy="0" fill="#BB2727" transform="matrix(0.8415902719729105 0.5401164819930628 0.5401164819930628 -0.8415902719729105 56.19250997907221 -191.59493032565743)" font-family="sans-serif" font-size="14px">
    σ = -36.3318
</text>
	<text x="713.8841637288306" y="27.83883631794648" dx="0" dy="0" fill="#005005" transform="matrix(0.7576162706871195 -0.6527002270492491 -0.6527002270492491 -0.7576162706871195 191.2043206875115 514.8823474220893)" font-family="sans-serif" font-size="14px">
    σ = 546.2809
</text>
	<text x="901.6817415381385" y="15.392790072686518" dx="0" dy="0" fill="#BB2727" transform="matrix(0.8356852572731287 0.5492086586866095 0.5492086586866095 -0.8356852572731287 139.70574979309177 -466.9551020276363)" font-family="sans-serif" font-size="14px">
    σ = -37.8039
</text>
	<text x="1114.6628781880354" y="3.386779991629883" dx="0" dy="0" fill="#005005" transform="matrix(0.7692856380571247 -0.6389050063030047 -0.6389050063030047 -0.7692856380571247 259.3325654144607 718.1558744129021)" font-family="sans-serif" font-size="14px">
    σ = 377.4707
</text>
	<text x="1302.3901229007815" y="-5.599695343646355" dx="0" dy="0" fill="#BB2727" transform="matrix(0.8257422711968182 0.5640476057556848 0.5640476057556848 -0.8257422711968182 230.110039583932 -744.8336310767571)" font-family="sans-serif" font-size="14px">
    σ = -39.7094
</text>
	<text x="1515.6715119182293" y="-13.159109292757536" dx="0" dy="0" fill="#005005" transform="matrix(0.7840022651750571 -0.6207579626556388 -0.6207579626556388 -0.7840022651750571 319.21299143809887 917.3892790075861)" font-family="sans-serif" font-size="14px">
    σ = 209.0219
</text>
	<text x="1703.4711251088656" y="-17.860043832608554" dx="0" dy="0" fill="#BB2727" transform="matrix(0.8134574223013858 0.5816244682806809 0.5816244682806809 -0.8134574223013858 328.15773321057685 -1023.1689164238093)" font-family="sans-serif" font-size="14px">
    σ = -41.1479
</text>
	<text x="1916.92868458037" y="-20.40929092842003" dx="0" dy="0" fill="#005005" transform="matrix(0.7994007682759334 -0.600798145536292 -0.600798145536292 -0.7994007682759334 372.2725572551423 1114.962705044644)" font-family="sans-serif" font-size="14px">
    σ = 41.6677
</text>
	<text x="2104.8046487529778" y="-20.409290928419832" dx="0" dy="0" fill="#005005" transform="matrix(0.7994007682759322 0.6007981455362935 0.6007981455362935 -0.7994007682759322 434.48405961059905 -1301.2872234635242)" font-family="sans-serif" font-size="14px">
    σ = 41.6677
</text>
	<text x="2318.262208224482" y="-17.860043832607946" dx="0" dy="0" fill="#BB2727" transform="matrix(0.8134574223013868 -0.5816244682806796 -0.5816244682806796 -0.8134574223013868 422.0667696058637 1315.9695951428873)" font-family="sans-serif" font-size="14px">
    σ = -41.1479
</text>
	<text x="2506.061821415118" y="-13.159109292756519" dx="0" dy="0" fill="#005005" transform="matrix(0.7840022651750552 0.6207579626556412 0.6207579626556412 -0.7840022651750552 549.4722986318753 -1579.1337113366978)" font-family="sans-serif" font-size="14px">
    σ = 209.0219
</text>
	<text x="2719.3432104325657" y="-5.599695343644953" dx="0" dy="0" fill="#BB2727" transform="matrix(0.8257422711968189 -0.5640476057556838 -0.5640476057556838 -0.8257422711968189 470.70807693478577 1523.6154265777468)" font-family="sans-serif" font-size="14px">
    σ = -39.7094
</text>
	<text x="2907.0704551453123" y="3.386779991631304" dx="0" dy="0" fill="#005005" transform="matrix(0.7692856380571247 0.6389050063030047 0.6389050063030047 -0.7692856380571247 668.5390744899347 -1851.3496862694421)" font-family="sans-serif" font-size="14px">
    σ = 377.4707
</text>
	<text x="3120.051591795209" y="15.392790072687886" dx="0" dy="0" fill="#BB2727" transform="matrix(0.8356852572731283 -0.5492086586866102 -0.5492086586866102 -0.8356852572731283 521.1243281896618 1741.815667567603)" font-family="sans-serif" font-size="14px">
    σ = -37.8039
</text>
	<text x="3307.8491696045166" y="27.838836317947703" dx="0" dy="0" fill="#005005" transform="matrix(0.7576162706871197 0.6527002270492488 0.6527002270492488 -0.7576162706871197 783.5984029477459 -2110.1039123761166)" font-family="sans-serif" font-size="14px">
    σ = 546.2809
</text>
	<text x="3520.4106700282737" y="42.99420133081495" dx="0" dy="0" fill="#BB2727" transform="matrix(0.8415902719729099 -0.5401164819930637 -0.5401164819930637 -0.8415902719729099 580.8891735517461 1980.6095291885888)" font-family="sans-serif" font-size="14px">
    σ = -36.3318
</text>
	<text x="3708.2929057440338" y="56.850200461230145" dx="0" dy="0" fill="#BB2727" transform="matrix(0.7533012961245998 0.6576755714309283 0.6576755714309283 -0.7533012961245998 877.4420653630922 -2339.1781256648464)" font-family="sans-serif" font-size="14px">
    σ = -36.1389
</text>
	<text x="3920.7727046538034" y="74.36706190822036" dx="0" dy="0" fill="#BB2727" transform="matrix(0.8498832741559265 -0.5269709862127159 -0.5269709862127159 -0.8498832741559265 627.7628451569587 2203.703842859448)" font-family="sans-serif" font-size="14px">
    σ = -783.8608
</text>
	<text x="322.81466062457037" y="190.96814096797223" dx="0" dy="0" fill="#BB2727" transform="matrix(-0.8405296532011257 -0.5417655416225688 -0.5417655416225688 0.8405296532011257 697.609913691748 205.34361512467495)" font-family="sans-serif" font-size="14px">
    σ = -744.9847
</text>
	<text x="523.8113976352765" y="192.18716326675192" dx="0" dy="0" fill="#005005" transform="matrix(0.7552614655667056 -0.6554236176931925 -0.6554236176931925 -0.7552614655667056 254.16083959919996 680.657083085747)" font-family="sans-serif" font-size="14px">
    σ = 588.4556
</text>
	<text x="922.4645810238301" y="164.46524462142807" dx="0" dy="0" fill="#005005" transform="matrix(0.763555712147299 -0.6457419565486132 -0.6457419565486132 -0.763555712147299 324.31358977560694 885.717704998947)" font-family="sans-serif" font-size="14px">
    σ = 420.1102
</text>
	<text x="1320.6950850269902" y="143.7522071841285" dx="0" dy="0" fill="#005005" transform="matrix(0.7740575239743136 -0.6331152735314122 -0.6331152735314122 -0.7740575239743136 389.4128355580763 1091.1769147513721)" font-family="sans-serif" font-size="14px">
    σ = 251.7764
</text>
	<text x="1718.7622539496338" y="131.81493168984446" dx="0" dy="0" fill="#005005" transform="matrix(0.7865799745466889 -0.6174884157959 -0.6174884157959 -0.7865799745466889 448.21247733352794 1296.8136986244656)" font-family="sans-serif" font-size="14px">
    σ = 83.8199
</text>
	<text x="2315.3208476996315" y="116.08333219891125" dx="0" dy="0" fill="#005005" transform="matrix(-0.7865799745466886 -0.6174884157959004 -0.6174884157959004 0.7865799745466886 4208.18597405044 1454.4583100178634)" font-family="sans-serif" font-size="14px">
    σ = 83.8199
</text>
	<text x="2713.700553776985" y="128.2710567046436" dx="0" dy="0" fill="#005005" transform="matrix(-0.7740575239743145 -0.6331152735314112 -0.6331152735314112 0.7740575239743145 4895.471250393048 1747.0671485411362)" font-family="sans-serif" font-size="14px">
    σ = 251.7764
</text>
	<text x="3112.1835914404896" y="149.19413037848346" dx="0" dy="0" fill="#005005" transform="matrix(-0.7635557121472991 -0.6457419565486131 -0.6457419565486131 0.7635557121472991 5584.850059592142 2044.9436213844149)" font-family="sans-serif" font-size="14px">
    σ = 420.1102
</text>
	<text x="3511.030408051935" y="177.0819339554188" dx="0" dy="0" fill="#005005" transform="matrix(-0.7552614655667065 -0.6554236176931914 -0.6554236176931914 0.7552614655667065 6278.840061467678 2344.551024867064)" font-family="sans-serif" font-size="14px">
    σ = 588.4556
</text>
	<text x="3709.753983541229" y="207.7787340319954" dx="0" dy="0" fill="#BB2727" transform="matrix(0.8405296532011249 -0.5417655416225701 -0.5417655416225701 -0.8405296532011249 704.1631126743239 2392.239797470178)" font-family="sans-serif" font-size="14px">
    σ = -744.9847
</text>
	<text x="196.57793909934207" y="57.513035567543305" dx="0" dy="0" fill="#005005" transform="matrix(0.07859522342216636 0.9969066108995465 0.9969066108995465 -0.07859522342216636 123.79272668577559 -133.93656159748116)" font-family="sans-serif" font-size="14px">
    σ = 31.2171
</text>
	<text x="401.8245466436485" y="117.65440258053572" dx="0" dy="0" fill="#005005" transform="matrix(0.07002359138904221 0.9975453356359201 0.9975453356359201 -0.07002359138904221 256.32174826814236 -274.9452158564327)" font-family="sans-serif" font-size="14px">
    σ = 79.9311
</text>
	<text x="597.0638951375729" y="27.933015539249435" dx="0" dy="0" fill="#005005" transform="matrix(0.06837099837249712 0.9976599654098324 0.9976599654098324 -0.06837099837249712 528.3743892181651 -565.8239212711884)" font-family="sans-serif" font-size="14px">
    σ = 29.6977
</text>
	<text x="801.3840087383612" y="88.64909373114625" dx="0" dy="0" fill="#BB2727" transform="matrix(0.05886770645203155 0.9982657928312867 0.9982657928312867 -0.05886770645203155 665.7130123193014 -706.126580287365)" font-family="sans-serif" font-size="14px">
    σ = -271.5321
</text>
	<text x="997.7386643451235" y="1.3403554071660748" dx="0" dy="0" fill="#005005" transform="matrix(0.05445220738817121 0.9985163779881407 0.9985163779881407 -0.05445220738817121 942.0712248486257 -994.8450565828471)" font-family="sans-serif" font-size="14px">
    σ = 27.9746
</text>
	<text x="1201.0755839243634" y="65.87360404287935" dx="0" dy="0" fill="#BB2727" transform="matrix(0.04222151540465153 0.9991082742310439 0.9991082742310439 -0.04222151540465153 1084.5494898028896 -1131.3496664449783)" font-family="sans-serif" font-size="14px">
    σ = -173.2173
</text>
	<text x="1398.7531784445846" y="-17.96241656634382" dx="0" dy="0" fill="#005005" transform="matrix(0.034383343371817476 0.999408718042111 0.999408718042111 -0.034383343371817476 1368.6111633312114 -1416.5061454295624)" font-family="sans-serif" font-size="14px">
    σ = 26.1839
</text>
	<text x="1600.9024209366044" y="51.46239036140959" dx="0" dy="0" fill="#BB2727" transform="matrix(0.02200292503638829 0.9997579063402515 0.9997579063402515 -0.02200292503638829 1514.227953335176 -1547.9201391318945)" font-family="sans-serif" font-size="14px">
    σ = -74.516
</text>
	<text x="1800.104710109762" y="-28.181150801890027" dx="0" dy="0" fill="#005005" transform="matrix(0.011607142040053111 0.9999326348577998 0.9999326348577998 -0.011607142040053111 1807.3898914272083 -1828.49169922209)" font-family="sans-serif" font-size="14px">
    σ = 25.1348
</text>
	<text x="2000.8666666666736" y="46.4624999999318" dx="0" dy="0" fill="#BB2727" transform="matrix(0 1.0 1.0 0 1954.404166666743 -1954.404166666742)" font-family="sans-serif" font-size="14px">
    σ = -25.0
</text>
	<text x="2201.6299705264296" y="-28.41329364269066" dx="0" dy="0" fill="#005005" transform="matrix(-0.011607142040054544 0.9999326348577998 0.9999326348577998 0.011607142040054544 2255.595981891095 -2229.565153917947)" font-family="sans-serif" font-size="14px">
    σ = 25.1348
</text>
	<text x="2400.8357542699378" y="51.022331860682556" dx="0" dy="0" fill="#BB2727" transform="matrix(-0.022002925036389055 0.9997579063402515 0.9997579063402515 0.022002925036389055 2402.6511837181883 -2350.3548358381613)" font-family="sans-serif" font-size="14px">
    σ = -74.516
</text>
	<text x="2602.9919805279205" y="-18.650083433778835" dx="0" dy="0" fill="#005005" transform="matrix(-0.03438334337182046 0.9994087180421108 0.9994087180421108 0.03438334337182046 2711.130603564438 -2619.461709544467)" font-family="sans-serif" font-size="14px">
    σ = 26.1839
</text>
	<text x="2800.6755839243633" y="65.0291737347877" dx="0" dy="0" fill="#BB2727" transform="matrix(-0.042221515404651404 0.9991082742310439 0.9991082742310439 0.042221515404651404 2853.9531656896224 -2735.894605861499)" font-family="sans-serif" font-size="14px">
    σ = -173.2173
</text>
	<text x="3004.024341428461" y="0.25131125940409627" dx="0" dy="0" fill="#005005" transform="matrix(-0.054452207388168875 0.9985163779881409 0.9985163779881409 0.054452207388168875 3167.349159458543 -2999.329877984769)" font-family="sans-serif" font-size="14px">
    σ = 27.9746
</text>
	<text x="3200.38400873836" y="87.47173960210695" dx="0" dy="0" fill="#BB2727" transform="matrix(-0.058867706452030544 0.9982657928312868 0.9982657928312868 0.058867706452030544 3301.463229614313 -3112.5114009354093)" font-family="sans-serif" font-size="14px">
    σ = -271.5321
</text>
	<text x="3404.7162388875777" y="26.565595571800632" dx="0" dy="0" fill="#005005" transform="matrix(-0.06837099837249702 0.9976599654098324 0.9976599654098324 0.06837099837249702 3610.9966561561196 -3371.9998058386786)" font-family="sans-serif" font-size="14px">
    σ = 29.6977
</text>
	<text x="3599.9578799769806" y="116.25393075275574" dx="0" dy="0" fill="#005005" transform="matrix(-0.070023591389041 0.9975453356359202 0.9975453356359202 0.070023591389041 3736.0712932104943 -3483.007778648458)" font-family="sans-serif" font-size="14px">
    σ = 79.9311
</text>
	<text x="3805.2172620160145" y="55.94113109910054" dx="0" dy="0" fill="#005005" transform="matrix(-0.0785952234221647 0.9969066108995466 0.9969066108995466 0.0785952234221647 4048.52107948015 -3741.9018190109587)" font-family="sans-serif" font-size="14px">
    σ = 31.2171
</text>
	<text x="101.22413594727712" y="0.8175940219210638" dx="0" dy="0" fill="#005005" transform="matrix(0.9958739855260237 -0.09074692806102676 -0.09074692806102676 -0.9958739855260237 0.49184639592460777 10.817594021920995)" font-family="sans-serif" font-size="14px">
    σ = 641.6891
</text>
	<text x="301.6866436761077" y="-15.719356603302645" dx="0" dy="0" fill="#005005" transform="matrix(0.99728308967139 -0.07366436761071306 -0.07366436761071306 -0.99728308967139 -0.3383009052222773 -9.172449301291678)" font-family="sans-serif" font-size="14px">
    σ = 638.8238
</text>
	<text x="502.3119771167227" y="-30.457657805654467" dx="0" dy="0" fill="#005005" transform="matrix(0.9973418583260678 -0.07286437833884049 -0.07286437833884049 -0.9973418583260678 -0.884061901976912 -24.23370489704149)" font-family="sans-serif" font-size="14px">
    σ = 638.7046
</text>
	<text x="702.9114414356649" y="-44.77086618477438" dx="0" dy="0" fill="#005005" transform="matrix(0.997583520415034 -0.06947747689969416 -0.06947747689969416 -0.997583520415034 -1.411995672863619 -40.597031050534866)" font-family="sans-serif" font-size="14px">
    σ = 638.2145
</text>
	<text x="903.7027388204228" y="-57.99263909297503" dx="0" dy="0" fill="#005005" transform="matrix(0.9980798407069736 -0.061940548708758786 -0.061940548708758786 -0.9980798407069736 -1.8568426744084825 -59.89807956892345)" font-family="sans-serif" font-size="14px">
    σ = 1103.8937
</text>
	<text x="1104.6900816988002" y="-69.32829933772581" dx="0" dy="0" fill="#005005" transform="matrix(0.9987152051215561 -0.050674836546437306 -0.050674836546437306 -0.9987152051215561 -2.0939000777473336 -82.5875367069741)" font-family="sans-serif" font-size="14px">
    σ = 1102.6028
</text>
	<text x="1305.8913169538628" y="-78.87623583438963" dx="0" dy="0" fill="#005005" transform="matrix(0.9990257221224904 -0.04413169538593065 -0.04413169538593065 -0.9990257221224904 -2.2086409924921 -100.0444264902049)" font-family="sans-serif" font-size="14px">
    σ = 1435.3127
</text>
	<text x="1507.1506098435973" y="-86.01207941928375" dx="0" dy="0" fill="#005005" transform="matrix(0.9996427525224373 -0.02672765102595453 -0.02672765102595453 -0.9996427525224373 -1.7604750890615666 -131.71083569670083)" font-family="sans-serif" font-size="14px">
    σ = 1434.0584
</text>
	<text x="1708.6450023088084" y="-91.00660025377" dx="0" dy="0" fill="#005005" transform="matrix(0.9997392801852404 -0.022833564213618048 -0.022833564213618048 -0.9997392801852404 -1.632527442265634 -142.9750179050842)" font-family="sans-serif" font-size="14px">
    σ = 1633.8635
</text>
	<text x="1910.06052170576" y="-93.4126791464955" dx="0" dy="0" fill="#005005" transform="matrix(0.999999446468387 -0.0010521705753265254 -0.0010521705753265254 -0.999999446468387 -0.0972287934788718 -184.8155971080884)" font-family="sans-serif" font-size="14px">
    σ = 1633.3345
</text>
	<text x="2111.6728116275876" y="-93.41267914649528" dx="0" dy="0" fill="#005005" transform="matrix(0.999999446468387 0.0010521705753265254 0.0010521705753265254 -0.999999446468387 0.09945495001788762 -189.04714658323118)" font-family="sans-serif" font-size="14px">
    σ = 1633.3345
</text>
	<text x="2313.0883310245395" y="-91.00660025376942" dx="0" dy="0" fill="#005005" transform="matrix(0.9997392801852404 0.022833564213618048 0.022833564213618048 -0.9997392801852404 2.681073011944854 -234.80552422179818)" font-family="sans-serif" font-size="14px">
    σ = 1633.8635
</text>
	<text x="2514.58272348975" y="-86.0120794192827" dx="0" dy="0" fill="#005005" transform="matrix(0.9996427525224373 0.02672765102595453 0.02672765102595453 -0.9996427525224373 3.197229177824773 -239.2023207494813)" font-family="sans-serif" font-size="14px">
    σ = 1434.0584
</text>
	<text x="2715.842016379485" y="-78.87623583438824" dx="0" dy="0" fill="#005005" transform="matrix(0.9990257221224903 0.04413169538593316 0.04413169538593316 -0.9990257221224903 6.126926808402114 -277.53033688031974)" font-family="sans-serif" font-size="14px">
    σ = 1435.3127
</text>
	<text x="2917.0432516345472" y="-69.32829933772439" dx="0" dy="0" fill="#005005" transform="matrix(0.9987152051215561 0.050674836546437306 0.050674836546437306 -0.9987152051215561 7.261002466881088 -286.38821600699714)" font-family="sans-serif" font-size="14px">
    σ = 1102.6028
</text>
	<text x="3118.030594512925" y="-57.99263909297367" dx="0" dy="0" fill="#005005" transform="matrix(0.9980798407069736 0.061940548708758786 0.061940548708758786 -0.9980798407069736 9.579211308482297 -309.0064489958938)" font-family="sans-serif" font-size="14px">
    σ = 1103.8937
</text>
	<text x="3318.8218918976822" y="-44.770866184773155" dx="0" dy="0" fill="#005005" transform="matrix(0.997583520415034 0.06947747689969416 0.06947747689969416 -0.997583520415034 11.130432169041018 -320.01691581393004)" font-family="sans-serif" font-size="14px">
    σ = 638.2145
</text>
	<text x="3519.421356216625" y="-30.457657805653472" dx="0" dy="0" fill="#005005" transform="matrix(0.9973418583260679 0.07286437833883896 0.07286437833883896 -0.9973418583260679 11.574398876751996 -317.27480407496125)" font-family="sans-serif" font-size="14px">
    σ = 638.7046
</text>
	<text x="3720.0466896572393" y="-15.719356603301947" dx="0" dy="0" fill="#005005" transform="matrix(0.9972830896713901 0.07366436761071156 0.07366436761071156 -0.9972830896713901 11.264989737470241 -305.43089200021075)" font-family="sans-serif" font-size="14px">
    σ = 638.8238
</text>
	<text x="3920.5091973860704" y="0.8175940219213373" dx="0" dy="0" fill="#005005" transform="matrix(0.9958739855260239 0.09074692806102433 0.09074692806102433 -0.9958739855260239 16.101883547880895 -354.14235145870356)" font-family="sans-serif" font-size="14px">
    σ = 641.6891
</text>
	<text x="621.9975214806138" y="262.4055484687514" dx="0" dy="0" fill="#BB2727" transform="matrix(0.9973256802115881 -0.0730854813933189 -0.0730854813933189 -0.9973256802115881 20.841456110155352 569.5683288695056)" font-family="sans-serif" font-size="14px">
    σ = -1061.3533
</text>
	<text x="1019.3664111712969" y="236.57109881048828" dx="0" dy="0" fill="#BB2727" transform="matrix(0.9983946032759001 -0.056641117128442955 -0.056641117128442955 -0.9983946032759001 15.036138814081163 530.5004594458835)" font-family="sans-serif" font-size="14px">
    σ = -1396.8261
</text>
	<text x="1416.1559745405675" y="218.2467870978128" dx="0" dy="0" fill="#BB2727" transform="matrix(0.999366209787358 -0.03559745405573725 -0.03559745405573725 -0.999366209787358 8.66657577276494 486.7667987574881)" font-family="sans-serif" font-size="14px">
    σ = -1598.7513
</text>
	<text x="1812.6528801120812" y="208.81421595834095" dx="0" dy="0" fill="#BB2727" transform="matrix(0.9999285402852195 -0.011954677873961327 -0.011954677873961327 -0.9999285402852195 2.6258383450946376 439.2831913914156)" font-family="sans-serif" font-size="14px">
    σ = -1666.5261
</text>
	<text x="2209.0804532212665" y="208.8142159583413" dx="0" dy="0" fill="#BB2727" transform="matrix(0.9999285402852194 0.011954677873970612 0.011954677873970612 -0.9999285402852194 -2.3384464281730706 391.2046648964228)" font-family="sans-serif" font-size="14px">
    σ = -1666.5261
</text>
	<text x="2605.5773587927797" y="218.2467870978138" dx="0" dy="0" fill="#BB2727" transform="matrix(0.999366209787358 0.03559745405573725 0.03559745405573725 -0.999366209787358 -6.117640548242285 343.60333119972927)" font-family="sans-serif" font-size="14px">
    σ = -1598.7513
</text>
	<text x="3002.3669221620507" y="236.57109881048962" dx="0" dy="0" fill="#BB2727" transform="matrix(0.9983946032759001 0.056641117128442955 0.056641117128442955 -0.9983946032759001 -8.579661295544621 302.7049906531887)" font-family="sans-serif" font-size="14px">
    σ = -1396.8261
</text>
	<text x="3399.735811852734" y="262.4055484687525" dx="0" dy="0" fill="#BB2727" transform="matrix(0.9973256802115882 0.07308548139331739 0.07308548139331739 -0.9973256802115882 -10.086055073106175 275.6380121672882)" font-family="sans-serif" font-size="14px">
    σ = -1061.3533
</text>
	<g >
    <circle cx="0.0" cy="0.0" r="5" stroke-width="4" stroke="#354595" fill="#FFFFFF"/>
	<text x="5.0" y="5.0" dx="0" dy="0" fill="#354595" transform="matrix(1.0 0 0 -1.0 0 10.0)" font-family="sans-serif" font-size="14px">
    1
</text>
</g>
	<g >
    <circle cx="200.6333333333337" cy="-18.282291666678343" r="5" stroke-width="4" stroke="#354595" fill="#FFFFFF"/>
	<text x="205.6333333333337" y="-13.282291666678343" dx="0" dy="0" fill="#354595" transform="matrix(1.0 0 0 -1.0 0 -26.564583333356687)" font-family="sans-serif" font-size="14px">
    2
</text>
</g>
	<g >
    <circle cx="401.2666666666674" cy="-33.10208333335474" r="5" stroke-width="4" stroke="#354595" fill="#FFFFFF"/>
	<text x="406.2666666666674" y="-28.10208333335474" dx="0" dy="0" fill="#354595" transform="matrix(1.0 0 0 -1.0 0 -56.20416666670948)" font-family="sans-serif" font-size="14px">
    3
</text>
</g>
	<g >
    <circle cx="601.9000000000011" cy="-47.76006944447554" r="5" stroke-width="4" stroke="#354595" fill="#FFFFFF"/>
	<text x="606.9000000000011" y="-42.76006944447554" dx="0" dy="0" fill="#354595" transform="matrix(1.0 0 0 -1.0 0 -85.52013888895108)" font-family="sans-serif" font-size="14px">
    4
</text>
</g>
	<g >
    <circle cx="802.5333333333348" cy="-61.7333333333739" r="5" stroke-width="4" stroke="#354595" fill="#FFFFFF"/>
	<text x="807.5333333333348" y="-56.7333333333739" dx="0" dy="0" fill="#354595" transform="matrix(1.0 0 0 -1.0 0 -113.4666666667478)" font-family="sans-serif" font-size="14px">
    5
</text>
</g>
	<g >
    <circle cx="1003.6333333333356" cy="-74.21354166671564" r="5" stroke-width="4" stroke="#354595" fill="#FFFFFF"/>
	<text x="1008.6333333333356" y="-69.21354166671564" dx="0" dy="0" fill="#354595" transform="matrix(1.0 0 0 -1.0 0 -138.42708333343128)" font-family="sans-serif" font-size="14px">
    6
</text>
</g>
	<g >
    <circle cx="1204.7333333333363" cy="-84.41736111116708" r="5" stroke-width="4" stroke="#354595" fill="#FFFFFF"/>
	<text x="1209.7333333333363" y="-79.41736111116708" dx="0" dy="0" fill="#354595" transform="matrix(1.0 0 0 -1.0 0 -158.83472222233416)" font-family="sans-serif" font-size="14px">
    7
</text>
</g>
	<g >
    <circle cx="1406.1666666666706" cy="-93.315625000062" r="5" stroke-width="4" stroke="#354595" fill="#FFFFFF"/>
	<text x="1411.1666666666706" y="-88.315625000062" dx="0" dy="0" fill="#354595" transform="matrix(1.0 0 0 -1.0 0 -176.631250000124)" font-family="sans-serif" font-size="14px">
    8
</text>
</g>
	<g >
    <circle cx="1607.600000000005" cy="-98.70138888895426" r="5" stroke-width="4" stroke="#354595" fill="#FFFFFF"/>
	<text x="1612.600000000005" y="-93.70138888895426" dx="0" dy="0" fill="#354595" transform="matrix(1.0 0 0 -1.0 0 -187.4027777779085)" font-family="sans-serif" font-size="14px">
    9
</text>
</g>
	<g >
    <circle cx="1809.2333333333395" cy="-103.30659722229056" r="5" stroke-width="4" stroke="#354595" fill="#FFFFFF"/>
	<text x="1814.2333333333395" y="-98.30659722229056" dx="0" dy="0" fill="#354595" transform="matrix(1.0 0 0 -1.0 0 -196.61319444458113)" font-family="sans-serif" font-size="14px">
    10
</text>
</g>
	<g >
    <circle cx="2010.8666666666738" cy="-103.51875000006818" r="5" stroke-width="4" stroke="#354595" fill="#FFFFFF"/>
	<text x="2015.8666666666738" y="-98.51875000006818" dx="0" dy="0" fill="#354595" transform="matrix(1.0 0 0 -1.0 0 -197.03750000013636)" font-family="sans-serif" font-size="14px">
    11
</text>
</g>
	<g >
    <circle cx="2212.500000000008" cy="-103.30659722229012" r="5" stroke-width="4" stroke="#354595" fill="#FFFFFF"/>
	<text x="2217.500000000008" y="-98.30659722229012" dx="0" dy="0" fill="#354595" transform="matrix(1.0 0 0 -1.0 0 -196.61319444458024)" font-family="sans-serif" font-size="14px">
    12
</text>
</g>
	<g >
    <circle cx="2414.1333333333428" cy="-98.70138888895352" r="5" stroke-width="4" stroke="#354595" fill="#FFFFFF"/>
	<text x="2419.1333333333428" y="-93.70138888895352" dx="0" dy="0" fill="#354595" transform="matrix(1.0 0 0 -1.0 0 -187.40277777790703)" font-family="sans-serif" font-size="14px">
    13
</text>
</g>
	<g >
    <circle cx="2615.566666666677" cy="-93.31562500006063" r="5" stroke-width="4" stroke="#354595" fill="#FFFFFF"/>
	<text x="2620.566666666677" y="-88.31562500006063" dx="0" dy="0" fill="#354595" transform="matrix(1.0 0 0 -1.0 0 -176.63125000012127)" font-family="sans-serif" font-size="14px">
    14
</text>
</g>
	<g >
    <circle cx="2817.0000000000114" cy="-84.41736111116568" r="5" stroke-width="4" stroke="#354595" fill="#FFFFFF"/>
	<text x="2822.0000000000114" y="-79.41736111116568" dx="0" dy="0" fill="#354595" transform="matrix(1.0 0 0 -1.0 0 -158.83472222233135)" font-family="sans-serif" font-size="14px">
    15
</text>
</g>
	<g >
    <circle cx="3018.1000000000117" cy="-74.21354166671422" r="5" stroke-width="4" stroke="#354595" fill="#FFFFFF"/>
	<text x="3023.1000000000117" y="-69.21354166671422" dx="0" dy="0" fill="#354595" transform="matrix(1.0 0 0 -1.0 0 -138.42708333342844)" font-family="sans-serif" font-size="14px">
    16
</text>
</g>
	<g >
    <circle cx="3219.2000000000126" cy="-61.733333333372585" r="5" stroke-width="4" stroke="#354595" fill="#FFFFFF"/>
	<text x="3224.2000000000126" y="-56.733333333372585" dx="0" dy="0" fill="#354595" transform="matrix(1.0 0 0 -1.0 0 -113.46666666674517)" font-family="sans-serif" font-size="14px">
    17
</text>
</g>
	<g >
    <circle cx="3419.833333333346" cy="-47.760069444474404" r="5" stroke-width="4" stroke="#354595" fill="#FFFFFF"/>
	<text x="3424.833333333346" y="-42.760069444474404" dx="0" dy="0" fill="#354595" transform="matrix(1.0 0 0 -1.0 0 -85.52013888894881)" font-family="sans-serif" font-size="14px">
    18
</text>
</g>
	<g >
    <circle cx="3620.46666666668" cy="-33.10208333335389" r="5" stroke-width="4" stroke="#354595" fill="#FFFFFF"/>
	<text x="3625.46666666668" y="-28.10208333335389" dx="0" dy="0" fill="#354595" transform="matrix(1.0 0 0 -1.0 0 -56.20416666670778)" font-family="sans-serif" font-size="14px">
    19
</text>
</g>
	<g >
    <circle cx="3821.1000000000136" cy="-18.282291666677803" r="5" stroke-width="4" stroke="#354595" fill="#FFFFFF"/>
	<text x="3826.1000000000136" y="-13.282291666677803" dx="0" dy="0" fill="#354595" transform="matrix(1.0 0 0 -1.0 0 -26.564583333355607)" font-family="sans-serif" font-size="14px">
    20
</text>
</g>
	<g >
    <circle cx="4021.733333333347" cy="0.0" r="5" stroke-width="4" stroke="#354595" fill="#FFFFFF"/>
	<text x="4026.733333333347" y="5.0" dx="0" dy="0" fill="#354595" transform="matrix(1.0 0 0 -1.0 0 10.0)" font-family="sans-serif" font-size="14px">
    21
</text>
</g>
	<g >
    <circle cx="212.46067708334138" cy="131.73645833332165" r="5" stroke-width="4" stroke="#354595" fill="#FFFFFF"/>
	<text x="217.46067708334138" y="136.73645833332165" dx="0" dy="0" fill="#354595" transform="matrix(1.0 0 0 -1.0 0 273.4729166666433)" font-family="sans-serif" font-size="14px">
    22
</text>
</g>
	<g >
    <circle cx="612.1809895833413" cy="102.25868055552446" r="5" stroke-width="4" stroke="#354595" fill="#FFFFFF"/>
	<text x="617.1809895833413" y="107.25868055552446" dx="0" dy="0" fill="#354595" transform="matrix(1.0 0 0 -1.0 0 214.51736111104893)" font-family="sans-serif" font-size="14px">
    23
</text>
</g>
	<g >
    <circle cx="1011.8143229166744" cy="75.80520833328436" r="5" stroke-width="4" stroke="#354595" fill="#FFFFFF"/>
	<text x="1016.8143229166744" y="80.80520833328436" dx="0" dy="0" fill="#354595" transform="matrix(1.0 0 0 -1.0 0 161.6104166665687)" font-family="sans-serif" font-size="14px">
    24
</text>
</g>
	<g >
    <circle cx="1411.3278645833407" cy="56.70312499993803" r="5" stroke-width="4" stroke="#354595" fill="#FFFFFF"/>
	<text x="1416.3278645833407" y="61.70312499993803" dx="0" dy="0" fill="#354595" transform="matrix(1.0 0 0 -1.0 0 123.40624999987605)" font-family="sans-serif" font-size="14px">
    25
</text>
</g>
	<g >
    <circle cx="1810.9747395833404" cy="46.712152777709434" r="5" stroke-width="4" stroke="#354595" fill="#FFFFFF"/>
	<text x="1815.9747395833404" y="51.712152777709434" dx="0" dy="0" fill="#354595" transform="matrix(1.0 0 0 -1.0 0 103.42430555541887)" font-family="sans-serif" font-size="14px">
    26
</text>
</g>
	<g >
    <circle cx="2210.758593750007" cy="46.712152777709875" r="5" stroke-width="4" stroke="#354595" fill="#FFFFFF"/>
	<text x="2215.758593750007" y="51.712152777709875" dx="0" dy="0" fill="#354595" transform="matrix(1.0 0 0 -1.0 0 103.42430555541975)" font-family="sans-serif" font-size="14px">
    27
</text>
</g>
	<g >
    <circle cx="2610.4054687500065" cy="56.70312499993938" r="5" stroke-width="4" stroke="#354595" fill="#FFFFFF"/>
	<text x="2615.4054687500065" y="61.70312499993938" dx="0" dy="0" fill="#354595" transform="matrix(1.0 0 0 -1.0 0 123.40624999987875)" font-family="sans-serif" font-size="14px">
    28
</text>
</g>
	<g >
    <circle cx="3009.9190104166732" cy="75.80520833328579" r="5" stroke-width="4" stroke="#354595" fill="#FFFFFF"/>
	<text x="3014.9190104166732" y="80.80520833328579" dx="0" dy="0" fill="#354595" transform="matrix(1.0 0 0 -1.0 0 161.61041666657158)" font-family="sans-serif" font-size="14px">
    29
</text>
</g>
	<g >
    <circle cx="3409.552343750006" cy="102.2586805555256" r="5" stroke-width="4" stroke="#354595" fill="#FFFFFF"/>
	<text x="3414.552343750006" y="107.2586805555256" dx="0" dy="0" fill="#354595" transform="matrix(1.0 0 0 -1.0 0 214.5173611110512)" font-family="sans-serif" font-size="14px">
    30
</text>
</g>
	<g >
    <circle cx="3809.272656250006" cy="131.7364583333222" r="5" stroke-width="4" stroke="#354595" fill="#FFFFFF"/>
	<text x="3814.272656250006" y="136.7364583333222" dx="0" dy="0" fill="#354595" transform="matrix(1.0 0 0 -1.0 0 273.4729166666444)" font-family="sans-serif" font-size="14px">
    31
</text>
</g>
	<g >
    <circle cx="422.333333333348" cy="267.0104166666453" r="5" stroke-width="4" stroke="#354595" fill="#FFFFFF"/>
	<text x="427.333333333348" y="272.0104166666453" dx="0" dy="0" fill="#354595" transform="matrix(1.0 0 0 -1.0 0 544.0208333332906)" font-family="sans-serif" font-size="14px">
    32
</text>
</g>
	<g >
    <circle cx="820.2000000000133" cy="237.85416666662582" r="5" stroke-width="4" stroke="#354595" fill="#FFFFFF"/>
	<text x="825.2000000000133" y="242.85416666662582" dx="0" dy="0" fill="#354595" transform="matrix(1.0 0 0 -1.0 0 485.70833333325163)" font-family="sans-serif" font-size="14px">
    33
</text>
</g>
	<g >
    <circle cx="1217.4000000000115" cy="215.32013888883276" r="5" stroke-width="4" stroke="#354595" fill="#FFFFFF"/>
	<text x="1222.4000000000115" y="220.32013888883276" dx="0" dy="0" fill="#354595" transform="matrix(1.0 0 0 -1.0 0 440.6402777776655)" font-family="sans-serif" font-size="14px">
    34
</text>
</g>
	<g >
    <circle cx="1614.2000000000091" cy="201.1861111110457" r="5" stroke-width="4" stroke="#354595" fill="#FFFFFF"/>
	<text x="1619.2000000000091" y="206.1861111110457" dx="0" dy="0" fill="#354595" transform="matrix(1.0 0 0 -1.0 0 412.3722222220914)" font-family="sans-serif" font-size="14px">
    35
</text>
</g>
	<g >
    <circle cx="2010.8666666666736" cy="196.4437499999318" r="5" stroke-width="4" stroke="#354595" fill="#FFFFFF"/>
	<text x="2015.8666666666736" y="201.4437499999318" dx="0" dy="0" fill="#354595" transform="matrix(1.0 0 0 -1.0 0 402.8874999998636)" font-family="sans-serif" font-size="14px">
    36
</text>
</g>
	<g >
    <circle cx="2407.5333333333383" cy="201.1861111110464" r="5" stroke-width="4" stroke="#354595" fill="#FFFFFF"/>
	<text x="2412.5333333333383" y="206.1861111110464" dx="0" dy="0" fill="#354595" transform="matrix(1.0 0 0 -1.0 0 412.3722222220928)" font-family="sans-serif" font-size="14px">
    37
</text>
</g>
	<g >
    <circle cx="2804.333333333336" cy="215.3201388888341" r="5" stroke-width="4" stroke="#354595" fill="#FFFFFF"/>
	<text x="2809.333333333336" y="220.3201388888341" dx="0" dy="0" fill="#354595" transform="matrix(1.0 0 0 -1.0 0 440.6402777776682)" font-family="sans-serif" font-size="14px">
    38
</text>
</g>
	<g >
    <circle cx="3201.533333333334" cy="237.85416666662712" r="5" stroke-width="4" stroke="#354595" fill="#FFFFFF"/>
	<text x="3206.533333333334" y="242.85416666662712" dx="0" dy="0" fill="#354595" transform="matrix(1.0 0 0 -1.0 0 485.70833333325425)" font-family="sans-serif" font-size="14px">
    39
</text>
</g>
	<g >
    <circle cx="3599.3999999999996" cy="267.01041666664617" r="5" stroke-width="4" stroke="#354595" fill="#FFFFFF"/>
	<text x="3604.3999999999996" y="272.01041666664617" dx="0" dy="0" fill="#354595" transform="matrix(1.0 0 0 -1.0 0 544.0208333332923)" font-family="sans-serif" font-size="14px">
    40
</text>
</g>
	<g >
    <g stroke="#4A0072" stroke-width="4" fill="none">
    <line x1="56.739623020443474" y1="-1981.3952777920858" x2="0.0" y2="0.0" />
	<polyline points="-6.596389189688202,-14.194634537675306 0.0,0.0 7.397874116327324,-13.793892074355746" />
</g>
	<text x="46.74372065900381" y="-1981.6815224087427" dx="0" dy="0" fill="#4A0072" transform="matrix(-0.02862446166568281 0.999590236143966 0.999590236143966 0.02862446166568281 2028.951235445808 -1971.681522408743)" font-family="sans-serif" font-size="14px">
    (-283.7, 9906.98) with norm 9911.04
</text>
</g>
	<g >
    <g stroke="#4A0072" stroke-width="4" fill="none">
    <line x1="3964.9937103397283" y1="-1981.3952777866034" x2="4021.733333333347" y2="0.0" />
	<polyline points="4014.3354592172054,-13.793892074455231 4021.733333333347,0.0 4028.3297225232263,-14.194634537586596" />
</g>
	<text x="3954.997807978285" y="-1981.109033170081" dx="0" dy="0" fill="#4A0072" transform="matrix(0.02862446165224054 0.999590236144351 0.999590236144351 -0.02862446165224054 5822.085371183303 -5991.19440554637)" font-family="sans-serif" font-size="14px">
    (283.7, 9906.98) with norm 9911.04
</text>
</g>
	<g >
    <g >
    <g stroke="#FFC046" stroke-width="4" fill="none">
    <line x1="0.0" y1="100.0" x2="0.0" y2="0.0" />
	<polyline points="7.0,14.0 0.0,0.0 -7.0,14.0" />
</g>
	<text x="10.0" y="100.0" dx="0" dy="0" fill="#FFC046" transform="matrix(0 -1.0 -1.0 0 110.0 110.00000000000001)" font-family="sans-serif" font-size="14px">
    (0.0, -500.0) with norm 500.0
</text>
</g>
</g>
	<g >
    <g >
    <g stroke="#FFC046" stroke-width="4" fill="none">
    <line x1="200.6333333333337" y1="81.71770833332165" x2="200.6333333333337" y2="-18.282291666678343" />
	<polyline points="207.6333333333337,-4.2822916666783435 200.6333333333337,-18.282291666678343 193.6333333333337,-4.2822916666783435" />
</g>
	<text x="210.6333333333337" y="81.71770833332165" dx="0" dy="0" fill="#FFC046" transform="matrix(0 -1.0 -1.0 0 292.3510416666553 292.35104166665536)" font-family="sans-serif" font-size="14px">
    (0.0, -500.0) with norm 500.0
</text>
</g>
</g>
	<g >
    <g >
    <g stroke="#FFC046" stroke-width="4" fill="none">
    <line x1="401.2666666666674" y1="66.89791666664526" x2="401.2666666666674" y2="-33.10208333335474" />
	<polyline points="408.2666666666674,-19.10208333335474 401.2666666666674,-33.10208333335474 394.2666666666674,-19.10208333335474" />
</g>
	<text x="411.2666666666674" y="66.89791666664526" dx="0" dy="0" fill="#FFC046" transform="matrix(0 -1.0 -1.0 0 478.1645833333126 478.16458333331263)" font-family="sans-serif" font-size="14px">
    (0.0, -500.0) with norm 500.0
</text>
</g>
</g>
	<g >
    <g >
    <g stroke="#FFC046" stroke-width="4" fill="none">
    <line x1="601.9000000000011" y1="52.23993055552446" x2="601.9000000000011" y2="-47.76006944447554" />
	<polyline points="608.9000000000011,-33.76006944447554 601.9000000000011,-47.76006944447554 594.9000000000011,-33.76006944447554" />
</g>
	<text x="611.9000000000011" y="52.23993055552446" dx="0" dy="0" fill="#FFC046" transform="matrix(0 -1.0 -1.0 0 664.1399305555254 664.1399305555256)" font-family="sans-serif" font-size="14px">
    (0.0, -500.0) with norm 500.0
</text>
</g>
</g>
	<g >
    <g >
    <g stroke="#FFC046" stroke-width="4" fill="none">
    <line x1="802.5333333333348" y1="38.2666666666261" x2="802.5333333333348" y2="-61.7333333333739" />
	<polyline points="809.5333333333348,-47.7333333333739 802.5333333333348,-61.7333333333739 795.5333333333348,-47.7333333333739" />
</g>
	<text x="812.5333333333348" y="38.2666666666261" dx="0" dy="0" fill="#FFC046" transform="matrix(0 -1.0 -1.0 0 850.7999999999607 850.799999999961)" font-family="sans-serif" font-size="14px">
    (0.0, -500.0) with norm 500.0
</text>
</g>
</g>
	<g >
    <g >
    <g stroke="#FFC046" stroke-width="4" fill="none">
    <line x1="1003.6333333333356" y1="25.786458333284358" x2="1003.6333333333356" y2="-74.21354166671564" />
	<polyline points="1010.6333333333356,-60.21354166671564 1003.6333333333356,-74.21354166671564 996.6333333333356,-60.21354166671564" />
</g>
	<text x="1013.6333333333356" y="25.786458333284358" dx="0" dy="0" fill="#FFC046" transform="matrix(0 -1.0 -1.0 0 1039.4197916666199 1039.4197916666199)" font-family="sans-serif" font-size="14px">
    (0.0, -500.0) with norm 500.0
</text>
</g>
</g>
	<g >
    <g >
    <g stroke="#FFC046" stroke-width="4" fill="none">
    <line x1="1204.7333333333363" y1="15.582638888832918" x2="1204.7333333333363" y2="-84.41736111116708" />
	<polyline points="1211.7333333333363,-70.41736111116708 1204.7333333333363,-84.41736111116708 1197.7333333333363,-70.41736111116708" />
</g>
	<text x="1214.7333333333363" y="15.582638888832918" dx="0" dy="0" fill="#FFC046" transform="matrix(0 -1.0 -1.0 0 1230.315972222169 1230.3159722221692)" font-family="sans-serif" font-size="14px">
    (0.0, -500.0) with norm 500.0
</text>
</g>
</g>
	<g >
    <g >
    <g stroke="#FFC046" stroke-width="4" fill="none">
    <line x1="1406.1666666666706" y1="6.684374999938001" x2="1406.1666666666706" y2="-93.315625000062" />
	<polyline points="1413.1666666666706,-79.315625000062 1406.1666666666706,-93.315625000062 1399.1666666666706,-79.315625000062" />
</g>
	<text x="1416.1666666666706" y="6.684374999938001" dx="0" dy="0" fill="#FFC046" transform="matrix(0 -1.0 -1.0 0 1422.8510416666084 1422.8510416666086)" font-family="sans-serif" font-size="14px">
    (0.0, -500.0) with norm 500.0
</text>
</g>
</g>
	<g >
    <g >
    <g stroke="#FFC046" stroke-width="4" fill="none">
    <line x1="1607.600000000005" y1="1.2986111110457443" x2="1607.600000000005" y2="-98.70138888895426" />
	<polyline points="1614.600000000005,-84.70138888895426 1607.600000000005,-98.70138888895426 1600.600000000005,-84.70138888895426" />
</g>
	<text x="1617.600000000005" y="1.2986111110457443" dx="0" dy="0" fill="#FFC046" transform="matrix(0 -1.0 -1.0 0 1618.8986111110505 1618.8986111110505)" font-family="sans-serif" font-size="14px">
    (0.0, -500.0) with norm 500.0
</text>
</g>
</g>
	<g >
    <g >
    <g stroke="#FFC046" stroke-width="4" fill="none">
    <line x1="1809.2333333333395" y1="-3.306597222290563" x2="1809.2333333333395" y2="-103.30659722229056" />
	<polyline points="1816.2333333333395,-89.30659722229056 1809.2333333333395,-103.30659722229056 1802.2333333333395,-89.30659722229056" />
</g>
	<text x="1819.2333333333395" y="-3.306597222290563" dx="0" dy="0" fill="#FFC046" transform="matrix(0 -1.0 -1.0 0 1815.9267361110487 1815.926736111049)" font-family="sans-serif" font-size="14px">
    (0.0, -500.0) with norm 500.0
</text>
</g>
</g>
	<g >
    <g >
    <g stroke="#FFC046" stroke-width="4" fill="none">
    <line x1="2010.8666666666738" y1="-3.518750000068181" x2="2010.8666666666738" y2="-103.51875000006818" />
	<polyline points="2017.8666666666738,-89.51875000006818 2010.8666666666738,-103.51875000006818 2003.8666666666738,-89.51875000006818" />
</g>
	<text x="2020.8666666666738" y="-3.518750000068181" dx="0" dy="0" fill="#FFC046" transform="matrix(0 -1.0 -1.0 0 2017.3479166666054 2017.3479166666057)" font-family="sans-serif" font-size="14px">
    (0.0, -500.0) with norm 500.0
</text>
</g>
</g>
	<g >
    <g >
    <g stroke="#FFC046" stroke-width="4" fill="none">
    <line x1="2212.500000000008" y1="-3.3065972222901223" x2="2212.500000000008" y2="-103.30659722229012" />
	<polyline points="2219.500000000008,-89.30659722229012 2212.500000000008,-103.30659722229012 2205.500000000008,-89.30659722229012" />
</g>
	<text x="2222.500000000008" y="-3.3065972222901223" dx="0" dy="0" fill="#FFC046" transform="matrix(0 -1.0 -1.0 0 2219.1934027777174 2219.1934027777183)" font-family="sans-serif" font-size="14px">
    (0.0, -500.0) with norm 500.0
</text>
</g>
</g>
	<g >
    <g >
    <g stroke="#FFC046" stroke-width="4" fill="none">
    <line x1="2414.1333333333428" y1="1.2986111110464833" x2="2414.1333333333428" y2="-98.70138888895352" />
	<polyline points="2421.1333333333428,-84.70138888895352 2414.1333333333428,-98.70138888895352 2407.1333333333428,-84.70138888895352" />
</g>
	<text x="2424.1333333333428" y="1.2986111110464833" dx="0" dy="0" fill="#FFC046" transform="matrix(0 -1.0 -1.0 0 2425.4319444443886 2425.4319444443895)" font-family="sans-serif" font-size="14px">
    (0.0, -500.0) with norm 500.0
</text>
</g>
</g>
	<g >
    <g >
    <g stroke="#FFC046" stroke-width="4" fill="none">
    <line x1="2615.566666666677" y1="6.684374999939365" x2="2615.566666666677" y2="-93.31562500006063" />
	<polyline points="2622.566666666677,-79.31562500006063 2615.566666666677,-93.31562500006063 2608.566666666677,-79.31562500006063" />
</g>
	<text x="2625.566666666677" y="6.684374999939365" dx="0" dy="0" fill="#FFC046" transform="matrix(0 -1.0 -1.0 0 2632.251041666616 2632.2510416666164)" font-family="sans-serif" font-size="14px">
    (0.0, -500.0) with norm 500.0
</text>
</g>
</g>
	<g >
    <g >
    <g stroke="#FFC046" stroke-width="4" fill="none">
    <line x1="2817.0000000000114" y1="15.582638888834325" x2="2817.0000000000114" y2="-84.41736111116568" />
	<polyline points="2824.0000000000114,-70.41736111116568 2817.0000000000114,-84.41736111116568 2810.0000000000114,-70.41736111116568" />
</g>
	<text x="2827.0000000000114" y="15.582638888834325" dx="0" dy="0" fill="#FFC046" transform="matrix(0 -1.0 -1.0 0 2842.5826388888454 2842.5826388888454)" font-family="sans-serif" font-size="14px">
    (0.0, -500.0) with norm 500.0
</text>
</g>
</g>
	<g >
    <g >
    <g stroke="#FFC046" stroke-width="4" fill="none">
    <line x1="3018.1000000000117" y1="25.78645833328578" x2="3018.1000000000117" y2="-74.21354166671422" />
	<polyline points="3025.1000000000117,-60.21354166671422 3018.1000000000117,-74.21354166671422 3011.1000000000117,-60.21354166671422" />
</g>
	<text x="3028.1000000000117" y="25.78645833328578" dx="0" dy="0" fill="#FFC046" transform="matrix(0 -1.0 -1.0 0 3053.886458333297 3053.8864583332975)" font-family="sans-serif" font-size="14px">
    (0.0, -500.0) with norm 500.0
</text>
</g>
</g>
	<g >
    <g >
    <g stroke="#FFC046" stroke-width="4" fill="none">
    <line x1="3219.2000000000126" y1="38.266666666627415" x2="3219.2000000000126" y2="-61.733333333372585" />
	<polyline points="3226.2000000000126,-47.733333333372585 3219.2000000000126,-61.733333333372585 3212.2000000000126,-47.733333333372585" />
</g>
	<text x="3229.2000000000126" y="38.266666666627415" dx="0" dy="0" fill="#FFC046" transform="matrix(0 -1.0 -1.0 0 3267.4666666666394 3267.46666666664)" font-family="sans-serif" font-size="14px">
    (0.0, -500.0) with norm 500.0
</text>
</g>
</g>
	<g >
    <g >
    <g stroke="#FFC046" stroke-width="4" fill="none">
    <line x1="3419.833333333346" y1="52.239930555525596" x2="3419.833333333346" y2="-47.760069444474404" />
	<polyline points="3426.833333333346,-33.760069444474404 3419.833333333346,-47.760069444474404 3412.833333333346,-33.760069444474404" />
</g>
	<text x="3429.833333333346" y="52.239930555525596" dx="0" dy="0" fill="#FFC046" transform="matrix(0 -1.0 -1.0 0 3482.073263888871 3482.073263888872)" font-family="sans-serif" font-size="14px">
    (0.0, -500.0) with norm 500.0
</text>
</g>
</g>
	<g >
    <g >
    <g stroke="#FFC046" stroke-width="4" fill="none">
    <line x1="3620.46666666668" y1="66.89791666664611" x2="3620.46666666668" y2="-33.10208333335389" />
	<polyline points="3627.46666666668,-19.10208333335389 3620.46666666668,-33.10208333335389 3613.46666666668,-19.10208333335389" />
</g>
	<text x="3630.46666666668" y="66.89791666664611" dx="0" dy="0" fill="#FFC046" transform="matrix(0 -1.0 -1.0 0 3697.3645833333258 3697.364583333326)" font-family="sans-serif" font-size="14px">
    (0.0, -500.0) with norm 500.0
</text>
</g>
</g>
	<g >
    <g >
    <g stroke="#FFC046" stroke-width="4" fill="none">
    <line x1="3821.1000000000136" y1="81.7177083333222" x2="3821.1000000000136" y2="-18.282291666677803" />
	<polyline points="3828.1000000000136,-4.2822916666778035 3821.1000000000136,-18.282291666677803 3814.1000000000136,-4.2822916666778035" />
</g>
	<text x="3831.1000000000136" y="81.7177083333222" dx="0" dy="0" fill="#FFC046" transform="matrix(0 -1.0 -1.0 0 3912.8177083333353 3912.8177083333358)" font-family="sans-serif" font-size="14px">
    (0.0, -500.0) with norm 500.0
</text>
</g>
</g>
	<g >
    <g >
    <g stroke="#FFC046" stroke-width="4" fill="none">
    <line x1="4021.733333333347" y1="100.0" x2="4021.733333333347" y2="0.0" />
	<polyline points="4028.733333333347,14.0 4021.733333333347,0.0 4014.733333333347,14.0" />
</g>
	<text x="4031.733333333347" y="100.0" dx="0" dy="0" fill="#FFC046" transform="matrix(0 -1.0 -1.0 0 4131.733333333346 4131.733333333347)" font-family="sans-serif" font-size="14px">
    (0.0, -500.0) with norm 500.0
</text>
</g>
</g>
	<g >
    <g >
    <g stroke="#FFC046" stroke-width="4" fill="none">
    <line x1="212.46067708334138" y1="231.73645833332165" x2="212.46067708334138" y2="131.73645833332165" />
	<polyline points="219.46067708334138,145.73645833332165 212.46067708334138,131.73645833332165 205.46067708334138,145.73645833332165" />
</g>
	<text x="222.46067708334138" y="231.73645833332165" dx="0" dy="0" fill="#FFC046" transform="matrix(0 -1.0 -1.0 0 454.197135416663 454.19713541666306)" font-family="sans-serif" font-size="14px">
    (0.0, -500.0) with norm 500.0
</text>
</g>
</g>
	<g >
    <g >
    <g stroke="#FFC046" stroke-width="4" fill="none">
    <line x1="612.1809895833413" y1="202.25868055552445" x2="612.1809895833413" y2="102.25868055552446" />
	<polyline points="619.1809895833413,116.25868055552446 612.1809895833413,102.25868055552446 605.1809895833413,116.25868055552446" />
</g>
	<text x="622.1809895833413" y="202.25868055552445" dx="0" dy="0" fill="#FFC046" transform="matrix(0 -1.0 -1.0 0 824.4396701388657 824.4396701388658)" font-family="sans-serif" font-size="14px">
    (0.0, -500.0) with norm 500.0
</text>
</g>
</g>
	<g >
    <g >
    <g stroke="#FFC046" stroke-width="4" fill="none">
    <line x1="1011.8143229166744" y1="175.80520833328436" x2="1011.8143229166744" y2="75.80520833328436" />
	<polyline points="1018.8143229166744,89.80520833328436 1011.8143229166744,75.80520833328436 1004.8143229166744,89.80520833328436" />
</g>
	<text x="1021.8143229166744" y="175.80520833328436" dx="0" dy="0" fill="#FFC046" transform="matrix(0 -1.0 -1.0 0 1197.6195312499588 1197.6195312499588)" font-family="sans-serif" font-size="14px">
    (0.0, -500.0) with norm 500.0
</text>
</g>
</g>
	<g >
    <g >
    <g stroke="#FFC046" stroke-width="4" fill="none">
    <line x1="1411.3278645833407" y1="156.70312499993804" x2="1411.3278645833407" y2="56.70312499993803" />
	<polyline points="1418.3278645833407,70.70312499993803 1411.3278645833407,56.70312499993803 1404.3278645833407,70.70312499993803" />
</g>
	<text x="1421.3278645833407" y="156.70312499993804" dx="0" dy="0" fill="#FFC046" transform="matrix(0 -1.0 -1.0 0 1578.0309895832784 1578.0309895832788)" font-family="sans-serif" font-size="14px">
    (0.0, -500.0) with norm 500.0
</text>
</g>
</g>
	<g >
    <g >
    <g stroke="#FFC046" stroke-width="4" fill="none">
    <line x1="1810.9747395833404" y1="146.71215277770943" x2="1810.9747395833404" y2="46.712152777709434" />
	<polyline points="1817.9747395833404,60.712152777709434 1810.9747395833404,46.712152777709434 1803.9747395833404,60.712152777709434" />
</g>
	<text x="1820.9747395833404" y="146.71215277770943" dx="0" dy="0" fill="#FFC046" transform="matrix(0 -1.0 -1.0 0 1967.6868923610496 1967.6868923610498)" font-family="sans-serif" font-size="14px">
    (0.0, -500.0) with norm 500.0
</text>
</g>
</g>
	<g >
    <g >
    <g stroke="#FFC046" stroke-width="4" fill="none">
    <line x1="2210.758593750007" y1="146.7121527777099" x2="2210.758593750007" y2="46.712152777709875" />
	<polyline points="2217.758593750007,60.712152777709875 2210.758593750007,46.712152777709875 2203.758593750007,60.712152777709875" />
</g>
	<text x="2220.758593750007" y="146.7121527777099" dx="0" dy="0" fill="#FFC046" transform="matrix(0 -1.0 -1.0 0 2367.4707465277165 2367.470746527717)" font-family="sans-serif" font-size="14px">
    (0.0, -500.0) with norm 500.0
</text>
</g>
</g>
	<g >
    <g >
    <g stroke="#FFC046" stroke-width="4" fill="none">
    <line x1="2610.4054687500065" y1="156.70312499993938" x2="2610.4054687500065" y2="56.70312499993938" />
	<polyline points="2617.4054687500065,70.70312499993938 2610.4054687500065,56.70312499993938 2603.4054687500065,70.70312499993938" />
</g>
	<text x="2620.4054687500065" y="156.70312499993938" dx="0" dy="0" fill="#FFC046" transform="matrix(0 -1.0 -1.0 0 2777.1085937499456 2777.1085937499456)" font-family="sans-serif" font-size="14px">
    (0.0, -500.0) with norm 500.0
</text>
</g>
</g>
	<g >
    <g >
    <g stroke="#FFC046" stroke-width="4" fill="none">
    <line x1="3009.9190104166732" y1="175.8052083332858" x2="3009.9190104166732" y2="75.80520833328579" />
	<polyline points="3016.9190104166732,89.80520833328579 3009.9190104166732,75.80520833328579 3002.9190104166732,89.80520833328579" />
</g>
	<text x="3019.9190104166732" y="175.8052083332858" dx="0" dy="0" fill="#FFC046" transform="matrix(0 -1.0 -1.0 0 3195.7242187499587 3195.7242187499587)" font-family="sans-serif" font-size="14px">
    (0.0, -500.0) with norm 500.0
</text>
</g>
</g>
	<g >
    <g >
    <g stroke="#FFC046" stroke-width="4" fill="none">
    <line x1="3409.552343750006" y1="202.2586805555256" x2="3409.552343750006" y2="102.2586805555256" />
	<polyline points="3416.552343750006,116.2586805555256 3409.552343750006,102.2586805555256 3402.552343750006,116.2586805555256" />
</g>
	<text x="3419.552343750006" y="202.2586805555256" dx="0" dy="0" fill="#FFC046" transform="matrix(0 -1.0 -1.0 0 3621.811024305531 3621.8110243055316)" font-family="sans-serif" font-size="14px">
    (0.0, -500.0) with norm 500.0
</text>
</g>
</g>
	<g >
    <g >
    <g stroke="#FFC046" stroke-width="4" fill="none">
    <line x1="3809.272656250006" y1="231.7364583333222" x2="3809.272656250006" y2="131.7364583333222" />
	<polyline points="3816.272656250006,145.7364583333222 3809.272656250006,131.7364583333222 3802.272656250006,145.7364583333222" />
</g>
	<text x="3819.272656250006" y="231.7364583333222" dx="0" dy="0" fill="#FFC046" transform="matrix(0 -1.0 -1.0 0 4051.009114583328 4051.009114583328)" font-family="sans-serif" font-size="14px">
    (0.0, -500.0) with norm 500.0
</text>
</g>
</g>
	<g >
    <g >
    <g stroke="#FFC046" stroke-width="4" fill="none">
    <line x1="422.333333333348" y1="367.0104166666453" x2="422.333333333348" y2="267.0104166666453" />
	<polyline points="429.333333333348,281.0104166666453 422.333333333348,267.0104166666453 415.333333333348,281.0104166666453" />
</g>
	<text x="432.333333333348" y="367.0104166666453" dx="0" dy="0" fill="#FFC046" transform="matrix(0 -1.0 -1.0 0 799.3437499999932 799.3437499999934)" font-family="sans-serif" font-size="14px">
    (0.0, -500.0) with norm 500.0
</text>
</g>
</g>
	<g >
    <g >
    <g stroke="#FFC046" stroke-width="4" fill="none">
    <line x1="820.2000000000133" y1="337.8541666666258" x2="820.2000000000133" y2="237.85416666662582" />
	<polyline points="827.2000000000133,251.85416666662582 820.2000000000133,237.85416666662582 813.2000000000133,251.85416666662582" />
</g>
	<text x="830.2000000000133" y="337.8541666666258" dx="0" dy="0" fill="#FFC046" transform="matrix(0 -1.0 -1.0 0 1168.054166666639 1168.0541666666393)" font-family="sans-serif" font-size="14px">
    (0.0, -500.0) with norm 500.0
</text>
</g>
</g>
	<g >
    <g >
    <g stroke="#FFC046" stroke-width="4" fill="none">
    <line x1="1217.4000000000115" y1="315.32013888883273" x2="1217.4000000000115" y2="215.32013888883276" />
	<polyline points="1224.4000000000115,229.32013888883276 1217.4000000000115,215.32013888883276 1210.4000000000115,229.32013888883276" />
</g>
	<text x="1227.4000000000115" y="315.32013888883273" dx="0" dy="0" fill="#FFC046" transform="matrix(0 -1.0 -1.0 0 1542.7201388888438 1542.7201388888443)" font-family="sans-serif" font-size="14px">
    (0.0, -500.0) with norm 500.0
</text>
</g>
</g>
	<g >
    <g >
    <g stroke="#FFC046" stroke-width="4" fill="none">
    <line x1="1614.2000000000091" y1="301.1861111110457" x2="1614.2000000000091" y2="201.1861111110457" />
	<polyline points="1621.2000000000091,215.1861111110457 1614.2000000000091,201.1861111110457 1607.2000000000091,215.1861111110457" />
</g>
	<text x="1624.2000000000091" y="301.1861111110457" dx="0" dy="0" fill="#FFC046" transform="matrix(0 -1.0 -1.0 0 1925.3861111110546 1925.386111111055)" font-family="sans-serif" font-size="14px">
    (0.0, -500.0) with norm 500.0
</text>
</g>
</g>
	<g >
    <g >
    <g stroke="#FFC046" stroke-width="4" fill="none">
    <line x1="2010.8666666666736" y1="296.4437499999318" x2="2010.8666666666736" y2="196.4437499999318" />
	<polyline points="2017.8666666666736,210.4437499999318 2010.8666666666736,196.4437499999318 2003.8666666666736,210.4437499999318" />
</g>
	<text x="2020.8666666666736" y="296.4437499999318" dx="0" dy="0" fill="#FFC046" transform="matrix(0 -1.0 -1.0 0 2317.3104166666053 2317.3104166666053)" font-family="sans-serif" font-size="14px">
    (0.0, -500.0) with norm 500.0
</text>
</g>
</g>
	<g >
    <g >
    <g stroke="#FFC046" stroke-width="4" fill="none">
    <line x1="2407.5333333333383" y1="301.1861111110464" x2="2407.5333333333383" y2="201.1861111110464" />
	<polyline points="2414.5333333333383,215.1861111110464 2407.5333333333383,201.1861111110464 2400.5333333333383,215.1861111110464" />
</g>
	<text x="2417.5333333333383" y="301.1861111110464" dx="0" dy="0" fill="#FFC046" transform="matrix(0 -1.0 -1.0 0 2718.7194444443844 2718.7194444443844)" font-family="sans-serif" font-size="14px">
    (0.0, -500.0) with norm 500.0
</text>
</g>
</g>
	<g >
    <g >
    <g stroke="#FFC046" stroke-width="4" fill="none">
    <line x1="2804.333333333336" y1="315.3201388888341" x2="2804.333333333336" y2="215.3201388888341" />
	<polyline points="2811.333333333336,229.3201388888341 2804.333333333336,215.3201388888341 2797.333333333336,229.3201388888341" />
</g>
	<text x="2814.333333333336" y="315.3201388888341" dx="0" dy="0" fill="#FFC046" transform="matrix(0 -1.0 -1.0 0 3129.65347222217 3129.6534722221704)" font-family="sans-serif" font-size="14px">
    (0.0, -500.0) with norm 500.0
</text>
</g>
</g>
	<g >
    <g >
    <g stroke="#FFC046" stroke-width="4" fill="none">
    <line x1="3201.533333333334" y1="337.8541666666271" x2="3201.533333333334" y2="237.85416666662712" />
	<polyline points="3208.533333333334,251.85416666662712 3201.533333333334,237.85416666662712 3194.533333333334,251.85416666662712" />
</g>
	<text x="3211.533333333334" y="337.8541666666271" dx="0" dy="0" fill="#FFC046" transform="matrix(0 -1.0 -1.0 0 3549.3874999999607 3549.3874999999616)" font-family="sans-serif" font-size="14px">
    (0.0, -500.0) with norm 500.0
</text>
</g>
</g>
	<g >
    <g >
    <g stroke="#FFC046" stroke-width="4" fill="none">
    <line x1="3599.3999999999996" y1="367.01041666664617" x2="3599.3999999999996" y2="267.01041666664617" />
	<polyline points="3606.3999999999996,281.01041666664617 3599.3999999999996,267.01041666664617 3592.3999999999996,281.01041666664617" />
</g>
	<text x="3609.3999999999996" y="367.01041666664617" dx="0" dy="0" fill="#FFC046" transform="matrix(0 -1.0 -1.0 0 3976.4104166666452 3976.4104166666457)" font-family="sans-serif" font-size="14px">
    (0.0, -500.0) with norm 500.0
</text>
</g>
</g>
</svg>