<?xml version="1.0" encoding="UTF-8"?>
<svg width="2120px" height="740px" viewBox="0 0 2120 740" version="1.1" xmlns="http://www.w3.org/2000/svg" xmlns:xlink="http://www.w3.org/1999/xlink">
    <title>plane_truss_result</title>
    <g id="plane_truss_result" stroke="none" stroke-width="1" fill="none" fill-rule="evenodd">
        <g id="result" transform="translate(37.000000, 25.000000)">
            <g id="Group" transform="translate(1023.000000, 345.250000) scale(-1, 1) rotate(-180.000000) translate(-1023.000000, -345.250000) translate(0.000000, 0.750000)">
                <line x1="17.5" y1="200" x2="517.5" y2="200" id="Path" stroke="#D5DBF8" stroke-width="6.84653197" fill="#000000" fill-rule="nonzero"></line>
                <line x1="517.5" y1="200" x2="1017.5" y2="200" id="Path" stroke="#D5DBF8" stroke-width="6.84653197" fill="#000000" fill-rule="nonzero"></line>
                <line x1="1017.5" y1="200" x2="1517.5" y2="200" id="Path" stroke="#D5DBF8" stroke-width="6.84653197" fill="#000000" fill-rule="nonzero"></line>
                <line x1="1517.5" y1="200" x2="2017.5" y2="200" id="Path" stroke="#D5DBF8" stroke-width="6.84653197" fill="#000000" fill-rule="nonzero"></line>
                <line x1="517.5" y1="575" x2="1017.5" y2="575" id="Path" stroke="#D5DBF8" stroke-width="5.59016994" fill="#000000" fill-rule="nonzero"></line>
                <line x1="1017.5" y1="575" x2="1517.5" y2="575" id="Path" stroke="#D5DBF8" stroke-width="5.59016994" fill="#000000" fill-rule="nonzero"></line>
                <line x1="517.5" y1="200" x2="517.5" y2="575" id="Path" stroke="#D5DBF8" stroke-width="4.84122918" fill="#000000" fill-rule="nonzero"></line>
                <line x1="1017.5" y1="200" x2="1017.5" y2="575" id="Path" stroke="#D5DBF8" stroke-width="4.84122918" fill="#000000" fill-rule="nonzero"></line>
                <line x1="1517.5" y1="200" x2="1517.5" y2="575" id="Path" stroke="#D5DBF8" stroke-width="4.84122918" fill="#000000" fill-rule="nonzero"></line>
                <line x1="17.5" y1="200" x2="517.5" y2="575" id="Path" stroke="#D5DBF8" stroke-width="5.59016994" fill="#000000" fill-rule="nonzero"></line>
                <line x1="517.5" y1="575" x2="1017.5" y2="200" id="Path" stroke="#D5DBF8" stroke-width="5.59016994" fill="#000000" fill-rule="nonzero"></line>
                <line x1="1017.5" y1="200" x2="1517.5" y2="575" id="Path" stroke="#D5DBF8" stroke-width="5.59016994" fill="#000000" fill-rule="nonzero"></line>
                <line x1="1517.5" y1="575" x2="2017.5" y2="200" id="Path" stroke="#D5DBF8" stroke-width="5.59016994" fill="#000000" fill-rule="nonzero"></line>
                <line x1="17.5" y1="200" x2="520.46875" y2="175.234375" id="Path" stroke="#005005" stroke-width="6.84653197" fill="#000000" fill-rule="nonzero"></line>
                <line x1="520.46875" y1="175.234375" x2="1023.4375" y2="164.895833" id="Path" stroke="#005005" stroke-width="6.84653197" fill="#000000" fill-rule="nonzero"></line>
                <line x1="1023.4375" y1="164.895833" x2="1526.09375" y2="175.651042" id="Path" stroke="#005005" stroke-width="6.84653197" fill="#000000" fill-rule="nonzero"></line>
                <line x1="1526.09375" y1="175.651042" x2="2028.75" y2="200" id="Path" stroke="#005005" stroke-width="6.84653197" fill="#000000" fill-rule="nonzero"></line>
                <line x1="529.207764" y1="550.234375" x2="1023.73901" y2="538.020833" id="Path" stroke="#BB2727" stroke-width="5.59016994" fill="#000000" fill-rule="nonzero"></line>
                <line x1="1023.73901" y1="538.020833" x2="1518.27026" y2="550.651042" id="Path" stroke="#BB2727" stroke-width="5.59016994" fill="#000000" fill-rule="nonzero"></line>
                <line x1="520.46875" y1="175.234375" x2="529.207764" y2="550.234375" id="Path" stroke="#005005" stroke-width="4.84122918" fill="#000000" fill-rule="nonzero"></line>
                <line x1="1023.4375" y1="164.895833" x2="1023.73901" y2="538.020833" id="Path" stroke="#BB2727" stroke-width="4.84122918" fill="#000000" fill-rule="nonzero"></line>
                <line x1="1526.09375" y1="175.651042" x2="1518.27026" y2="550.651042" id="Path" stroke="#005005" stroke-width="4.84122918" fill="#000000" fill-rule="nonzero"></line>
                <line x1="17.5" y1="200" x2="529.207764" y2="550.234375" id="Path" stroke="#BB2727" stroke-width="5.59016994" fill="#000000" fill-rule="nonzero"></line>
                <line x1="529.207764" y1="550.234375" x2="1023.4375" y2="164.895833" id="Path" stroke="#005005" stroke-width="5.59016994" fill="#000000" fill-rule="nonzero"></line>
                <line x1="1023.4375" y1="164.895833" x2="1518.27026" y2="550.651042" id="Path" stroke="#005005" stroke-width="5.59016994" fill="#000000" fill-rule="nonzero"></line>
                <line x1="1518.27026" y1="550.651042" x2="2028.75" y2="200" id="Path" stroke="#BB2727" stroke-width="5.59016994" fill="#000000" fill-rule="nonzero"></line>
                <text id="σ-=-396.1059" fill="#005005" transform="translate(321.780191, 205.041810) scale(-1, 1) rotate(-177.181096) translate(-321.780191, -205.041810) " font-family="Helvetica" font-size="17.5" font-weight="normal">
                    <tspan x="269.905191" y="211.04181">σ = 396.1059</tspan>
                </text>
                <text id="σ-=-395.8808" fill="#005005" transform="translate(824.228184, 188.994813) scale(-1, 1) rotate(-178.822449) translate(-824.228184, -188.994813) " font-family="Helvetica" font-size="17.5" font-weight="normal">
                    <tspan x="772.353184" y="194.994813">σ = 395.8808</tspan>
                </text>
                <text id="σ-=-354.2181" fill="#005005" transform="translate(1326.200917, 191.378563) scale(-1, 1) rotate(178.774244) translate(-1326.200917, -191.378563) " font-family="Helvetica" font-size="17.5" font-weight="normal">
                    <tspan x="1274.32592" y="197.378563">σ = 354.2181</tspan>
                </text>
                <text id="σ-=-354.4302" fill="#005005" transform="translate(1828.268443, 210.312009) scale(-1, 1) rotate(177.226727) translate(-1828.268443, -210.312009) " font-family="Helvetica" font-size="17.5" font-weight="normal">
                    <tspan x="1776.39344" y="216.312009">σ = 354.4302</tspan>
                </text>
                <text id="σ-=--729.1004" fill="#BB2727" transform="translate(831.950416, 562.763575) scale(-1, 1) rotate(-178.585242) translate(-831.950416, -562.763575) " font-family="Helvetica" font-size="17.5" font-weight="normal">
                    <tspan x="776.950416" y="568.763575">σ = -729.1004</tspan>
                </text>
                <text id="σ-=--729.0958" fill="#BB2727" transform="translate(1325.476081, 565.733647) scale(-1, 1) rotate(178.536998) translate(-1325.476081, -565.733647) " font-family="Helvetica" font-size="17.5" font-weight="normal">
                    <tspan x="1270.47608" y="571.733647">σ = -729.0958</tspan>
                </text>
                <text id="σ-=-0.0603" fill="#005005" transform="translate(505.833838, 405.688794) scale(-1, 1) rotate(91.334981) translate(-505.833838, -405.688794) " font-family="Helvetica" font-size="17.5" font-weight="normal">
                    <tspan x="463.333838" y="411.688794">σ = 0.0603</tspan>
                </text>
                <text id="σ-=--333.3333" fill="#BB2727" transform="translate(1003.632708, 406.474477) scale(-1, 1) rotate(90.046299) translate(-1003.632708, -406.474477) " font-family="Helvetica" font-size="17.5" font-weight="normal">
                    <tspan x="948.632708" y="412.474477">σ = -333.3333</tspan>
                </text>
                <text id="σ-=-0.0484" fill="#005005" transform="translate(1501.299889, 405.224634) scale(-1, 1) rotate(88.804833) translate(-1501.299889, -405.224634) " font-family="Helvetica" font-size="17.5" font-weight="normal">
                    <tspan x="1458.79989" y="411.224634">σ = 0.0484</tspan>
                </text>
                <text id="σ-=--585.7326" fill="#BB2727" transform="translate(307.444598, 422.686327) scale(-1, 1) rotate(145.610616) translate(-307.444598, -422.686327) " font-family="Helvetica" font-size="17.5" font-weight="normal">
                    <tspan x="252.444598" y="428.686327">σ = -585.7326</tspan>
                </text>
                <text id="σ-=-169.31" fill="#005005" transform="translate(822.136711, 347.205559) scale(-1, 1) rotate(-142.057350) translate(-822.136711, -347.205559) " font-family="Helvetica" font-size="17.5" font-weight="normal">
                    <tspan x="779.636711" y="353.205559">σ = 169.31</tspan>
                </text>
                <text id="σ-=-247.4348" fill="#005005" transform="translate(1299.469644, 405.440552) scale(-1, 1) rotate(142.061203) translate(-1299.469644, -405.440552) " font-family="Helvetica" font-size="17.5" font-weight="normal">
                    <tspan x="1247.59464" y="411.440552">σ = 247.4348</tspan>
                </text>
                <text id="σ-=--663.8736" fill="#BB2727" transform="translate(1830.168942, 360.670174) scale(-1, 1) rotate(-145.514636) translate(-1830.168942, -360.670174) " font-family="Helvetica" font-size="17.5" font-weight="normal">
                    <tspan x="1775.16894" y="366.670174">σ = -663.8736</tspan>
                </text>
                <g transform="translate(11.250000, 193.750000)">
                    <circle id="Oval" stroke="#354595" stroke-width="5" fill="#FFFFFF" fill-rule="nonzero" cx="6.25" cy="6.25" r="6.25"></circle>
                    <text id="1" fill="#354595" transform="translate(17.500000, 20.000000) scale(-1, 1) rotate(-180.000000) translate(-17.500000, -20.000000) " font-family="Helvetica" font-size="17.5" font-weight="normal">
                        <tspan x="12.5" y="26">1</tspan>
                    </text>
                </g>
                <g transform="translate(513.750000, 168.750000)">
                    <circle id="Oval" stroke="#354595" stroke-width="5" fill="#FFFFFF" fill-rule="nonzero" cx="6.71875" cy="6.484375" r="6.25"></circle>
                    <text id="2" fill="#354595" transform="translate(17.968750, 20.234375) scale(-1, 1) rotate(-180.000000) translate(-17.968750, -20.234375) " font-family="Helvetica" font-size="17.5" font-weight="normal">
                        <tspan x="12.96875" y="26.234375">2</tspan>
                    </text>
                </g>
                <g transform="translate(1016.250000, 158.500000)">
                    <circle id="Oval" stroke="#354595" stroke-width="5" fill="#FFFFFF" fill-rule="nonzero" cx="7.1875" cy="6.39583333" r="6.25"></circle>
                    <text id="3" fill="#354595" transform="translate(18.437500, 20.145833) scale(-1, 1) rotate(-180.000000) translate(-18.437500, -20.145833) " font-family="Helvetica" font-size="17.5" font-weight="normal">
                        <tspan x="13.4375" y="26.1458333">3</tspan>
                    </text>
                </g>
                <g transform="translate(1519.750000, 168.750000)">
                    <circle id="Oval" stroke="#354595" stroke-width="5" fill="#FFFFFF" fill-rule="nonzero" cx="6.34375" cy="6.90104167" r="6.25"></circle>
                    <text id="4" fill="#354595" transform="translate(17.593750, 20.651042) scale(-1, 1) rotate(-180.000000) translate(-17.593750, -20.651042) " font-family="Helvetica" font-size="17.5" font-weight="normal">
                        <tspan x="12.59375" y="26.6510417">4</tspan>
                    </text>
                </g>
                <g transform="translate(2022.500000, 193.750000)">
                    <circle id="Oval" stroke="#354595" stroke-width="5" fill="#FFFFFF" fill-rule="nonzero" cx="6.25" cy="6.25" r="6.25"></circle>
                    <text id="5" fill="#354595" transform="translate(17.500000, 20.000000) scale(-1, 1) rotate(-180.000000) translate(-17.500000, -20.000000) " font-family="Helvetica" font-size="17.5" font-weight="normal">
                        <tspan x="12.5" y="26">5</tspan>
                    </text>
                </g>
                <g transform="translate(522.500000, 543.750000)">
                    <circle id="Oval" stroke="#354595" stroke-width="5" fill="#FFFFFF" fill-rule="nonzero" cx="6.70776367" cy="6.484375" r="6.25"></circle>
                    <text id="6" fill="#354595" transform="translate(17.957764, 20.234375) scale(-1, 1) rotate(-180.000000) translate(-17.957764, -20.234375) " font-family="Helvetica" font-size="17.5" font-weight="normal">
                        <tspan x="12.9577637" y="26.234375">6</tspan>
                    </text>
                </g>
                <g transform="translate(1017.250000, 531.250000)">
                    <circle id="Oval" stroke="#354595" stroke-width="5" fill="#FFFFFF" fill-rule="nonzero" cx="6.48901367" cy="6.77083333" r="6.25"></circle>
                    <text id="7" fill="#354595" transform="translate(17.739014, 20.520833) scale(-1, 1) rotate(-180.000000) translate(-17.739014, -20.520833) " font-family="Helvetica" font-size="17.5" font-weight="normal">
                        <tspan x="12.7390137" y="26.5208333">7</tspan>
                    </text>
                </g>
                <g transform="translate(1511.250000, 543.750000)">
                    <circle id="Oval" stroke="#354595" stroke-width="5" fill="#FFFFFF" fill-rule="nonzero" cx="7.02026367" cy="6.90104167" r="6.25"></circle>
                    <text id="8" fill="#354595" transform="translate(18.270264, 20.651042) scale(-1, 1) rotate(-180.000000) translate(-18.270264, -20.651042) " font-family="Helvetica" font-size="17.5" font-weight="normal">
                        <tspan x="13.2702637" y="26.6510417">8</tspan>
                    </text>
                </g>
                <g transform="translate(0.000000, 13.750000)">
                    <g transform="translate(15.000000, 10.000000)" id="Path" stroke="#4A0072" stroke-width="5">
                        <line x1="65.2863903" y1="0.530211688" x2="2.5" y2="176.25"></line>
                        <polyline points="0.148519696 156.826225 2.5 176.25 16.6281319 162.714551"></polyline>
                    </g>
                    <text id="(-2511.46,-7028.79)" fill="#4A0072" transform="translate(35.796271, 75.604721) scale(-1, 1) rotate(70.337697) translate(-35.796271, -75.604721) " font-family="Helvetica" font-size="17.5" font-weight="normal">
                        <tspan x="-40.453729" y="81.6047212">(-2511.46, 7028.79)</tspan>
                    </text>
                </g>
                <g transform="translate(1997.500000, 0.000000)">
                    <g transform="translate(22.250000, 0.000000)" id="Path" stroke="#4A0072" stroke-width="5">
                        <line x1="8.72683559" y1="0.837907985" x2="9" y2="200"></line>
                        <polyline points="0.226005808 182.512018 9 200 17.7259893 182.488015"></polyline>
                    </g>
                    <text id="(10.93,-7966.48)" fill="#4A0072" transform="translate(11.065149, 65.240279) scale(-1, 1) rotate(90.078585) translate(-11.065149, -65.240279) " font-family="Helvetica" font-size="17.5" font-weight="normal">
                        <tspan x="-53.309851" y="71.2402788">(10.93, 7966.48)</tspan>
                    </text>
                </g>
                <g transform="translate(466.250000, 550.000000)">
                    <g>
                        <g id="Path" stroke="#FFC046" stroke-width="5">
                            <line x1="0.457763672" y1="125.234375" x2="62.9577637" y2="0.234375"></line>
                            <polyline points="62.9577637 19.7999698 62.9577637 0.234375 47.3052878 11.9737319"></polyline>
                        </g>
                        <text id="(2500.0,--5000.0)" fill="#FFC046" transform="translate(48.533225, 73.804812) scale(-1, 1) rotate(-116.565051) translate(-48.533225, -73.804812) " font-family="Helvetica" font-size="17.5" font-weight="normal">
                            <tspan x="-18.9667748" y="79.8048115">(2500.0, -5000.0)</tspan>
                        </text>
                    </g>
                </g>
                <g transform="translate(1014.750000, 537.500000)">
                    <g>
                        <g id="Path" stroke="#FFC046" stroke-width="5">
                            <line x1="8.98901367" y1="125.520833" x2="8.98901367" y2="0.520833333"></line>
                            <polyline points="17.7390137 18.0208333 8.98901367 0.520833333 0.239013672 18.0208333"></polyline>
                        </g>
                        <text id="(0.0,--5000.0)" fill="#FFC046" transform="translate(28.989014, 72.395833) scale(-1, 1) rotate(-90.000000) translate(-28.989014, -72.395833) " font-family="Helvetica" font-size="17.5" font-weight="normal">
                            <tspan x="-24.1359863" y="78.3958333">(0.0, -5000.0)</tspan>
                        </text>
                    </g>
                </g>
                <g transform="translate(1508.750000, 550.000000)">
                    <g>
                        <g id="Path" stroke="#FFC046" stroke-width="5">
                            <line x1="9.52026367" y1="125.651042" x2="9.52026367" y2="0.651041667"></line>
                            <polyline points="18.2702637 18.1510417 9.52026367 0.651041667 0.770263672 18.1510417"></polyline>
                        </g>
                        <text id="(0.0,--5000.0)" fill="#FFC046" transform="translate(29.520264, 72.526042) scale(-1, 1) rotate(-90.000000) translate(-29.520264, -72.526042) " font-family="Helvetica" font-size="17.5" font-weight="normal">
                            <tspan x="-23.6047363" y="78.5260417">(0.0, -5000.0)</tspan>
                        </text>
                    </g>
                </g>
            </g>
        </g>
    </g>
</svg>